<?xml version="1.0" standalone="no"?>
<!DOCTYPE svg PUBLIC "-//W3C//DTD SVG 1.1//EN" "http://www.w3.org/Graphics/SVG/1.1/DTD/svg11.dtd" >
<!--
2013-9-30: Created.
-->
<svg>
<metadata>
Created by iconfont
</metadata>
<defs>

<font id="iconfont" horiz-adv-x="1024" >
  <font-face
    font-family="iconfont"
    font-weight="500"
    font-stretch="normal"
    units-per-em="1024"
    ascent="896"
    descent="-128"
  />
    <missing-glyph />
    
    <glyph glyph-name="arrowleft" unicode="&#59112;" d="M32.01024 384l480.01024-480.01024 0 288.01024 512 0 0 384-512 0 0 288.01024z"  horiz-adv-x="1025" />

    
    <glyph glyph-name="accessibility" unicode="&#59114;" d="M416.01024 799.98976c0 53.02272 42.98752 96.01024 96.01024 96.01024s96.01024-42.98752 96.01024-96.01024c0-53.02272-42.98752-96.01024-96.01024-96.01024s-96.01024 42.98752-96.01024 96.01024zM640 576l329.60512 142.17216-23.77728 59.43296-401.8176-137.60512-64 0-401.8176 137.60512-23.77728-59.43296 329.60512-142.17216 0-256-131.2768-424.57088 59.84256-22.69184 185.71264 415.27296 27.42272 0 185.71264-415.27296 59.84256 22.69184-131.2768 424.57088z"  horiz-adv-x="1024" />

    
    <glyph glyph-name="addressbook" unicode="&#59115;" d="M192 896l0-1024 768 0 0 1024-768 0zM576 639.67232c70.51264 0 127.67232-57.15968 127.67232-127.67232s-57.15968-127.67232-127.67232-127.67232-127.67232 57.15968-127.67232 127.67232 57.15968 127.67232 127.67232 127.67232l0 0zM768 128l-384 0 0 64c0 70.69696 57.30304 128 128 128l0 0 128 0c70.69696 0 128-57.30304 128-128l0-64zM64 832l96.01024 0 0-192-96.01024 0 0 192zM64 576l96.01024 0 0-192-96.01024 0 0 192zM64 320l96.01024 0 0-192-96.01024 0 0 192zM64 64l96.01024 0 0-192-96.01024 0 0 192z"  horiz-adv-x="1024" />

    
    <glyph glyph-name="aidkit" unicode="&#59116;" d="M896 640l-192 0 0 128c0 35.20512-28.79488 64-64 64l-256 0c-35.20512 0-64-28.79488-64-64l0-128-192 0c-70.41024 0-128-57.61024-128-128l0-512c0-70.41024 57.61024-128 128-128l768 0c70.41024 0 128 57.61024 128 128l0 512c0 70.38976-57.61024 128-128 128zM384 768l256 0 0-128-256 0 0 128zM768 192l-192 0 0-192-128 0 0 192-192 0 0 128 192 0 0 192 128 0 0-192 192 0 0-128z"  horiz-adv-x="1024" />

    
    <glyph glyph-name="airplane" unicode="&#59117;" d="M767.9943 256.032409l-182.820889 182.820889 438.815189 329.147231-127.99715 127.99715-548.503627-219.438314-172.703994 172.703994c-49.785771 49.785771-119.293344 61.704866-154.49768 26.50053s-23.264762-104.732388 26.50053-154.49768l172.683515-172.683515-219.458793-548.565065 127.99715-127.99715 329.18819 438.856148 182.820889-182.820889 0-255.97382 127.99715 0 63.998575 191.975245 191.975245 63.998575 0 127.99715-255.97382 0z"  horiz-adv-x="1024" />

    
    <glyph glyph-name="alarm" unicode="&#59118;" d="M512 768c-247.41888 0-448-200.58112-448-448s200.58112-448 448-448 448 200.58112 448 448-200.58112 448-448 448zM512-39.99744c-198.81984 0-359.99744 161.1776-359.99744 359.99744s161.1776 359.99744 359.99744 359.99744c198.81984 0 359.99744-161.1776 359.99744-359.99744s-161.1776-359.99744-359.99744-359.99744zM934.78912 608.82944c16.03584 28.0576 25.21088 60.53888 25.21088 95.17056 0 106.04544-85.95456 192-192 192-61.80864 0-116.79744-29.22496-151.92064-74.58816 131.8912-27.2384 245.20704-105.20576 318.70976-212.5824l0 0zM407.92064 821.41184c-35.1232 45.38368-90.112 74.58816-151.92064 74.58816-106.04544 0-192-85.95456-192-192 0-34.63168 9.17504-67.11296 25.21088-95.17056 73.50272 107.37664 186.81856 185.344 318.70976 212.5824zM512 320l0 256-64 0 0-320 256 0 0 64z"  horiz-adv-x="1024" />

    
    <glyph glyph-name="android" unicode="&#59119;" d="M895.989893 512.003628c-35.204193 0-63.998316-28.794122-63.998316-63.998316l0-255.993262c0-35.204193 28.794122-63.998316 63.998316-63.998316s63.998316 28.794122 63.998316 63.998316l0 255.993262c0 35.204193-28.794122 63.998316-63.998316 63.998316zM128.010107 512.003628c-35.204193 0-63.998316-28.794122-63.998316-63.998316l0-255.993262c0-35.204193 28.794122-63.998316 63.998316-63.998316s63.998316 28.794122 63.998316 63.998316l0 255.993262c0 35.204193-28.794122 63.998316-63.998316 63.998316zM224.01782 160.002652c0-53.021324 42.986389-96.007713 96.007713-96.007713l0 0 0-127.996631c0-35.204193 28.794122-63.998316 63.998316-63.998316s63.998316 28.794122 63.998316 63.998316l0 127.996631 127.996631 0 0-127.996631c0-35.204193 28.794122-63.998316 63.998316-63.998316s63.998316 28.794122 63.998316 63.998316l0 127.996631c53.021324 0 96.007713 42.986389 96.007713 96.007713l0 352.000975-575.98484 0 0-352.000975zM798.200467 576.001943c-9.707265 87.877367-59.001327 163.794729-129.614509 209.648242l32.029877 64.039274c7.905072 15.810144 1.495001 35.019878-14.315143 42.92495s-35.019878 1.495001-42.92495-14.315143l-32.132274-64.285028-8.35562 3.317673c-28.568848 9.50247-59.124204 14.663294-90.887848 14.663294s-62.319-5.160824-90.887848-14.663294l-8.35562-3.317673-32.132274 64.285028c-7.905072 15.810144-27.135286 22.220215-42.92495 14.315143s-22.220215-27.135286-14.315143-42.92495l32.029877-64.039274c-70.613181-45.853513-119.907244-121.750396-129.614509-209.648242l0-32.009398 574.203127 0 0 31.988918-1.781713 0zM416.012766 640.000259c-17.673775 0-32.009398 14.335623-32.009398 32.009398 0 17.653295 14.294664 31.947959 31.92748 31.988918 0.040959 0 0.061438 0 0.102397 0s0.040959 0 0.061438 0c17.632816-0.040959 31.92748-14.356102 31.92748-31.988918 0-17.673775-14.335623-32.009398-32.009398-32.009398zM608.007713 640.000259c-17.673775 0-32.009398 14.335623-32.009398 32.009398 0 17.653295 14.294664 31.947959 31.92748 31.988918 0.020479 0 0.040959 0 0.040959 0s0.061438 0 0.102397 0c17.632816-0.040959 31.92748-14.356102 31.92748-31.988918 0-17.673775-14.335623-32.009398-32.009398-32.009398z"  horiz-adv-x="1024" />

    
    <glyph glyph-name="angry" unicode="&#59120;" d="M512-128c282.76736 0 512 229.23264 512 512s-229.23264 512-512 512-512-229.23264-512-512 229.23264-512 512-512zM512 799.98976c229.74464 0 416.01024-186.24512 416.01024-416.01024s-186.24512-416.01024-416.01024-416.01024-416.01024 186.24512-416.01024 416.01024 186.24512 416.01024 416.01024 416.01024zM704.1024 115.26144c-39.17824 65.14688-110.55104 108.7488-192.1024 108.7488s-152.92416-43.60192-192.1024-108.7488l-82.3296 49.39776c55.95136 93.06112 157.92128 155.3408 274.432 155.3408s218.46016-62.27968 274.432-155.3408l-82.3296-49.39776zM767.03744 615.75168c4.28032-17.14176-6.144-34.5088-23.28576-38.8096-17.63328-4.44416-38.52288-12.12416-56.9344-21.34016 10.6496-11.42784 17.18272-26.74688 17.18272-43.60192 0-35.34848-28.65152-64-64-64s-64 28.65152-64 64c0 1.16736 0.04096 2.33472 0.1024 3.4816 2.02752 47.45216 45.21984 78.9504 81.59232 97.13664 34.73408 17.36704 69.09952 26.05056 70.5536 26.4192 17.14176 4.28032 34.5088-6.144 38.8096-23.28576zM256.96256 615.75168c4.28032 17.14176 21.66784 27.56608 38.8096 23.28576 1.45408-0.36864 35.79904-9.05216 70.5536-26.4192 36.37248-18.18624 79.5648-49.68448 81.59232-97.13664 0.06144-1.14688 0.1024-2.31424 0.1024-3.4816 0-35.34848-28.65152-64-64-64s-64 28.65152-64 64c0 16.85504 6.53312 32.17408 17.18272 43.60192-18.41152 9.23648-39.30112 16.896-56.9344 21.34016-17.14176 4.28032-27.56608 21.66784-23.28576 38.8096z"  horiz-adv-x="1024" />

    
    <glyph glyph-name="angry2" unicode="&#59121;" d="M512 896c-282.76736 0-512-229.23264-512-512s229.23264-512 512-512 512 229.23264 512 512-229.23264 512-512 512zM576.1024 515.4816c2.02752 47.45216 45.21984 78.9504 81.59232 97.13664 34.73408 17.36704 69.09952 26.05056 70.5536 26.4192 17.14176 4.28032 34.52928-6.144 38.8096-23.28576s-6.144-34.5088-23.28576-38.8096c-17.63328-4.44416-38.52288-12.12416-56.9344-21.34016 10.6496-11.42784 17.18272-26.74688 17.18272-43.60192 0-35.34848-28.65152-64-64-64s-64 28.65152-64 64c0 1.16736 0.04096 2.33472 0.1024 3.4816zM256.96256 615.75168c4.28032 17.14176 21.66784 27.56608 38.8096 23.28576 1.45408-0.36864 35.79904-9.05216 70.5536-26.4192 36.37248-18.18624 79.5648-49.68448 81.59232-97.13664 0.06144-1.14688 0.1024-2.31424 0.1024-3.4816 0-35.34848-28.65152-64-64-64s-64 28.65152-64 64c0 16.85504 6.53312 32.17408 17.18272 43.60192-18.41152 9.23648-39.30112 16.896-56.9344 21.34016-17.14176 4.28032-27.56608 21.66784-23.28576 38.8096zM704.1024 115.26144c-39.17824 65.14688-110.55104 108.7488-192.1024 108.7488s-152.92416-43.60192-192.1024-108.7488l-82.3296 49.39776c55.95136 93.06112 157.92128 155.3408 274.432 155.3408s218.46016-62.27968 274.432-155.3408l-82.3296-49.39776z"  horiz-adv-x="1024" />

    
    <glyph glyph-name="apple" unicode="&#59122;" d="M791.489559 351.909788c-1.290235 129.678896 105.758341 191.876433 110.550644 194.968902-60.149545 88.022725-153.845209 100.085402-187.24797 101.478037-79.748834 8.069091-155.586003-46.939992-196.074818-46.939992-40.365935 0-102.809232 45.752156-168.959395 44.543841-86.916809-1.290235-167.054762-50.544459-211.803402-128.38866-90.295997-156.691919-23.121837-388.831888 64.880408-515.930313 43.007846-62.197537 94.289582-132.075047 161.627581-129.576496 64.839448 2.580471 89.35392 41.96337 167.751079 41.96337s100.43356-41.96337 169.041315-40.673134c69.77511 1.290235 113.991272 63.405853 156.691919 125.78771 49.397583 72.171262 69.73415 142.028292 70.921986 145.632759-1.556474 0.696318-136.068633 52.244293-137.399828 207.133978zM662.568421 732.488265c35.737472 43.356005 59.862826 103.505549 53.288769 163.511735-51.486536-2.088953-113.868392-34.283397-150.81418-77.557482-33.136521-38.379383-62.156577-99.634843-54.374205-158.432713 57.466674-4.485104 116.121184 29.204375 151.899616 72.457981z"  horiz-adv-x="1024" />

    
    <glyph glyph-name="arrowdown" unicode="&#59123;" d="M512-96.01024l480.01024 480.01024-288.01024 0 0 512-384 0 0-512-288.01024 0z"  horiz-adv-x="1024" />

    
    <glyph glyph-name="arrowdownleft" unicode="&#59125;" d="M735.99552-128l-255.99488 255.99488 543.99936 543.99936-224.00576 224.00576-543.99936-543.99936-255.99488 255.99488 0-735.97504 735.99552 0z"  horiz-adv-x="1024" />

    
    <glyph glyph-name="arrowdownright" unicode="&#59127;" d="M1024 607.99552l-255.99488-255.99488-543.99936 543.99936-224.00576-224.00576 543.99936-543.99936-255.99488-255.99488 735.97504 0 0 735.99552z"  horiz-adv-x="1025" />

    
    <glyph glyph-name="barcode" unicode="&#59128;" d="M0 768l128 0 0-640-128 0zM192 768l64 0 0-640-64 0zM320 768l64 0 0-640-64 0zM512 768l64 0 0-640-64 0zM768 768l64 0 0-640-64 0zM960 768l64 0 0-640-64 0zM640 768l32.01024 0 0-640-32.01024 0zM448 768l32.01024 0 0-640-32.01024 0zM864.01024 768l32.01024 0 0-640-32.01024 0zM0 64l64 0 0-64-64 0zM192 64l64 0 0-64-64 0zM320 64l64 0 0-64-64 0zM640 64l64 0 0-64-64 0zM960 64l64 0 0-64-64 0zM768 64l128 0 0-64-128 0zM448 64l128 0 0-64-128 0z"  horiz-adv-x="1024" />

    
    <glyph glyph-name="bell" unicode="&#59129;" d="M1025.49504 95.98976c0 288.01024-256 224.01024-256 448 0 18.55488-1.78176 34.42688-5.03808 47.9232-16.83456 113.00864-92.16 203.71456-189.76768 231.36256 0.86016 3.95264 1.31072 8.02816 1.31072 12.20608 0 33.28-28.79488 60.49792-64 60.49792s-64-27.21792-64-60.49792c0-4.17792 0.45056-8.27392 1.31072-12.20608-109.4656-31.00672-190.91456-141.29152-193.24928-273.44896-0.04096-1.92512-0.06144-3.87072-0.06144-5.8368 0-224.01024-256-160.01024-256-448 0-76.22656 170.5984-140.00128 398.97088-156.07808 21.52448-40.40704 64.06144-67.91168 113.02912-67.91168s91.50464 27.52512 113.02912 67.91168c228.37248 16.0768 398.97088 79.85152 398.97088 156.07808 0 0.22528-0.02048 0.45056-0.02048 0.67584l1.536-0.67584zM826.24512 41.90208c-54.23104-14.47936-118.14912-24.8832-186.7776-30.63808-5.71392 65.41312-60.57984 116.736-127.488 116.736s-121.77408-51.32288-127.488-116.736c-68.608 5.77536-132.54656 16.1792-186.7776 30.63808-74.62912 19.90656-110.30528 42.1888-123.37152 54.08768 13.06624 11.89888 48.7424 34.18112 123.37152 54.08768 86.77376 23.1424 198.36928 35.90144 314.24512 35.90144s227.47136-12.75904 314.24512-35.90144c74.62912-19.90656 110.30528-42.1888 123.37152-54.08768-13.06624-11.89888-48.7424-34.18112-123.37152-54.08768z"  horiz-adv-x="1026" />

    
    <glyph glyph-name="bin" unicode="&#59130;" d="M128 576l0-640c0-35.20512 28.79488-64 64-64l576 0c35.20512 0 64 28.79488 64 64l0 640-704 0zM320 0l-64 0 0 448 64 0 0-448zM448 0l-64 0 0 448 64 0 0-448zM576 0l-64 0 0 448 64 0 0-448zM704 0l-64 0 0 448 64 0 0-448zM847.99488 768l-207.99488 0 0 79.99488c0 26.39872-21.6064 48.00512-48.00512 48.00512l-224.01024 0c-26.39872 0-48.00512-21.6064-48.00512-48.00512l0-79.99488-207.99488 0c-26.39872 0-48.00512-21.6064-48.00512-48.00512l0-79.99488 832 0 0 79.99488c0 26.39872-21.6064 48.00512-48.00512 48.00512zM576 768l-192 0 0 63.20128 192 0 0-63.20128z"  horiz-adv-x="1024" />

    
    <glyph glyph-name="bin2" unicode="&#59131;" d="M192-128l640 0 64 704-768 0zM640 768l0 128-256 0 0-128-320 0 0-192 64 64 768 0 64-64 0 192-320 0zM576 768l-128 0 0 64 128 0 0-64z"  horiz-adv-x="1024" />

    
    <glyph glyph-name="arrowright" unicode="&#59132;" d="M992.01024 384l-480.01024 480.01024 0-288.01024-512 0 0-384 512 0 0-288.01024z"  horiz-adv-x="1024" />

    
    <glyph glyph-name="arrowup" unicode="&#59134;" d="M512 863.9904l-480.00064-480.00064 288.00448 0 0-511.98976 383.99232 0 0 511.98976 288.00448 0z"  horiz-adv-x="1024" />

    
    <glyph glyph-name="arrowupleft" unicode="&#59136;" d="M0 160.00448l255.99488 255.99488 543.99936-543.99936 224.00576 224.00576-543.99936 543.99936 255.99488 255.99488-735.97504 0 0-735.99552z"  horiz-adv-x="1024" />

    
    <glyph glyph-name="arrowupright" unicode="&#59138;" d="M288.00448 896l255.99488-255.99488-543.99936-543.99936 224.00576-224.00576 543.99936 543.99936 255.99488-255.99488 0 735.97504-735.99552 0z"  horiz-adv-x="1024" />

    
    <glyph glyph-name="backward" unicode="&#59141;" d="M512-128c282.76736 0 512 229.23264 512 512s-229.23264 512-512 512-512-229.23264-512-512 229.23264-512 512-512zM512 799.98976c229.74464 0 416.01024-186.24512 416.01024-416.01024s-186.24512-416.01024-416.01024-416.01024-416.01024 186.24512-416.01024 416.01024 186.24512 416.01024 416.01024 416.01024zM704 223.98976l-224.01024 160.01024 224.01024 160.01024zM448 223.98976l-224.01024 160.01024 224.01024 160.01024z"  horiz-adv-x="1024" />

    
    <glyph glyph-name="backward2" unicode="&#59142;" d="M576 735.98976l0-320 320 320 0-704-320 320 0-320-352.01024 352.01024z"  horiz-adv-x="1024" />

    
    <glyph glyph-name="baffled" unicode="&#59143;" d="M512-128c282.76736 0 512 229.23264 512 512s-229.23264 512-512 512-512-229.23264-512-512 229.23264-512 512-512zM512 799.98976c229.74464 0 416.01024-186.24512 416.01024-416.01024s-186.24512-416.01024-416.01024-416.01024-416.01024 186.24512-416.01024 416.01024 186.24512 416.01024 416.01024 416.01024zM384 479.98976c0-17.67424-14.336-32.01024-32.01024-32.01024s-32.01024 14.336-32.01024 32.01024c0 17.67424 14.336 32.01024 32.01024 32.01024s32.01024-14.336 32.01024-32.01024zM352.01024 576c53.02272 0 96.01024-42.98752 96.01024-96.01024s-42.98752-96.01024-96.01024-96.01024-96.01024 42.98752-96.01024 96.01024 42.98752 96.01024 96.01024 96.01024zM352.01024 640c-88.22784 0-160.01024-71.7824-160.01024-160.01024s71.7824-160.01024 160.01024-160.01024 160.01024 71.7824 160.01024 160.01024-71.7824 160.01024-160.01024 160.01024l0 0zM704 479.98976c0-17.67424-14.336-32.01024-32.01024-32.01024s-32.01024 14.336-32.01024 32.01024c0 17.67424 14.336 32.01024 32.01024 32.01024s32.01024-14.336 32.01024-32.01024zM672.01024 576c53.02272 0 96.01024-42.98752 96.01024-96.01024s-42.98752-96.01024-96.01024-96.01024-96.01024 42.98752-96.01024 96.01024 42.98752 96.01024 96.01024 96.01024zM672.01024 640c-88.22784 0-160.01024-71.7824-160.01024-160.01024s71.7824-160.01024 160.01024-160.01024 160.01024 71.7824 160.01024 160.01024-71.7824 160.01024-160.01024 160.01024l0 0zM384 192l256 0 0-64-256 0 0 64z"  horiz-adv-x="1024" />

    
    <glyph glyph-name="baffled2" unicode="&#59144;" d="M384 479.98976c0-17.67424-14.336-32.01024-32.01024-32.01024s-32.01024 14.336-32.01024 32.01024 14.336 32.01024 32.01024 32.01024 32.01024-14.336 32.01024-32.01024zM704 479.98976c0-17.67424-14.336-32.01024-32.01024-32.01024s-32.01024 14.336-32.01024 32.01024 14.336 32.01024 32.01024 32.01024 32.01024-14.336 32.01024-32.01024zM512 896c-282.76736 0-512-229.23264-512-512s229.23264-512 512-512 512 229.23264 512 512-229.23264 512-512 512zM256 479.98976c0 53.02272 42.98752 96.01024 96.01024 96.01024s96.01024-42.98752 96.01024-96.01024-42.98752-96.01024-96.01024-96.01024-96.01024 42.98752-96.01024 96.01024zM640 128l-256 0 0 64 256 0 0-64zM672.01024 384c-53.02272 0-96.01024 42.98752-96.01024 96.01024s42.98752 96.01024 96.01024 96.01024 96.01024-42.98752 96.01024-96.01024-42.98752-96.01024-96.01024-96.01024z"  horiz-adv-x="1024" />

    
    <glyph glyph-name="bubbles" unicode="&#59145;" d="M1088-5.16096c0-45.50656 26.03008-84.91008 64-104.18176l0-15.93344c-10.62912-1.45408-21.46304-2.23232-32.50176-2.23232-68.01408 0-129.35168 28.52864-172.72832 74.26048-26.2144-6.98368-54.00576-10.752-82.78016-10.752-159.06816 0-288.01024 114.60608-288.01024 256s128.94208 256 288.01024 256c159.06816 0 288.01024-114.60608 288.01024-256 0-55.35744-19.7632-106.5984-53.3504-148.45952-6.81984-14.82752-10.6496-31.31392-10.6496-48.70144zM512 896c278.46656 0 504.99584-180.61312 511.83616-405.52448-49.17248 21.9136-103.58784 33.52576-159.82592 33.52576-95.55968 0-185.81504-33.44384-254.13632-94.18752-70.84032-62.976-109.85472-147.43552-109.85472-237.81376 0-44.66688 9.54368-87.87968 27.72992-127.7952-5.2224-0.12288-10.46528-0.2048-15.72864-0.2048-27.15648 0-53.80096 1.7408-79.83104 5.03808-109.9776-109.9776-241.2544-129.69984-368.16896-132.58752l0 26.91072c68.52608 33.5872 128 94.74048 128 164.63872 0 9.74848-0.75776 19.33312-2.17088 28.69248-115.79392 76.26752-189.82912 192.75776-189.82912 323.29728 0 229.74464 229.23264 416.01024 512 416.01024z"  horiz-adv-x="1152" />

    
    <glyph glyph-name="bubbles2" unicode="&#59146;" d="M480.01024 896l0 0c265.09312 0 480.01024-173.91616 480.01024-388.44416s-214.89664-388.44416-480.01024-388.44416c-25.45664 0-50.44224 1.61792-74.83392 4.7104-103.09632-102.68672-222.16704-121.09824-341.15584-123.82208l0 25.12896c64.24576 31.35488 115.99872 88.4736 115.99872 153.74336 0 9.1136-0.7168 18.04288-2.02752 26.78784-108.56448 71.20896-177.9712 179.97824-177.9712 301.89568 0 214.528 214.89664 388.44416 480.01024 388.44416zM996.00384 25.31328c0-55.95136 36.31104-104.89856 91.99616-131.76832l0-21.54496c-103.1168 2.31424-197.79584 18.10432-287.15008 106.12736-21.13536-2.64192-42.8032-4.03456-64.86016-4.03456-95.47776 0-183.3984 25.76384-253.60384 69.03808 144.67072 0.512 281.25184 46.85824 384.83968 130.6624 52.20352 42.25024 93.3888 91.83232 122.40896 147.3536 30.76096 58.85952 46.36672 121.58976 46.36672 186.40896 0 10.4448-0.45056 20.82816-1.24928 31.17056 72.56064-59.92448 117.248-141.6192 117.248-231.66976 0-104.48896-60.14976-197.71392-154.23488-258.7648-1.14688-7.49568-1.76128-15.1552-1.76128-22.95808z"  horiz-adv-x="1152" />

    
    <glyph glyph-name="bubbles3" unicode="&#59147;" d="M1087.97824-5.163417c0-45.50565 26.029559-84.908382 63.99872-104.179676l0-15.933121c-10.628907-1.454051-21.462611-2.232275-32.50111-2.232275-68.01272 0-129.349093 28.528069-172.724866 74.258995-26.213876-6.98354-54.00468-10.751785-82.778504-10.751785-159.064979 0-288.00448 114.603788-288.00448 255.99488s128.939501 255.99488 288.00448 255.99488c159.064979 0 288.00448-114.603788 288.00448-255.99488 0-55.356333-19.762805-106.596268-53.349333-148.456551-6.819704-14.827223-10.649387-31.313294-10.649387-48.700466zM230.682106 674.799944c-66.210516-53.799884-102.684666-122.97994-102.684666-194.801864 0-40.303834 11.181856-79.378892 33.258855-116.139757 22.752825-37.928201 56.974221-72.579668 98.97786-100.247595 30.350753-19.98808 50.768905-51.956721 56.175516-87.898402 1.802204-11.98056 2.928581-24.083998 3.379132-36.125997 7.47505 6.184836 14.745305 12.840703 21.872203 19.967601 24.145437 24.145437 56.769425 37.49813 90.49931 37.49813 5.365653 0 10.751785-0.327673 16.158397-1.02398 20.950621-2.662347 42.351793-4.014 63.589128-4.014l0-127.99744c-27.135457 0-53.758925 1.740765-79.747525 5.037979-109.9754-109.9754-241.249575-129.697246-368.161597-132.584868l0 26.910182c68.52471 33.586528 127.99744 94.738585 127.99744 164.635427 0 9.748285-0.757745 19.332733-2.170837 28.691906-115.791604 76.265995-189.825323 192.753905-189.825323 323.290814 0 229.740045 229.228055 416.00192 511.98976 416.00192 278.460991 0 504.98574-180.609508 511.825923-405.51637-41.102538 18.308754-85.829963 29.429171-132.257195 32.583028-11.530009 56.073119-45.403252 108.808064-98.240595 151.753765-35.327293 28.691906-76.921342 51.383292-123.635287 67.439291-49.703966 17.079978-102.766585 25.742845-157.692846 25.742845s-107.98888-8.662867-157.692846-25.742845c-46.713946-16.055999-88.307994-38.747385-123.635287-67.439291z"  horiz-adv-x="1152" />

    
    <glyph glyph-name="bubbles4" unicode="&#59148;" d="M480.01024 768c-50.66752 0-99.57376-7.94624-145.38752-23.63392-42.92608-14.68416-81.12128-35.4304-113.50016-61.6448-60.04736-48.59904-93.10208-110.7968-93.10208-175.16544 0-35.98336 10.07616-70.94272 29.92128-103.89504 20.6848-34.34496 51.89632-65.80224 90.25536-90.95168 30.43328-19.968 50.93376-51.95776 56.36096-87.94112 0.90112-5.98016 1.6384-12.00128 2.17088-18.0224 2.72384 2.51904 5.4272 5.12 8.11008 7.80288 24.14592 24.04352 56.68864 37.31456 90.3168 37.31456 5.34528 0 10.71104-0.32768 16.09728-1.024 19.3536-2.4576 39.1168-3.6864 58.75712-3.6864 50.66752 0 99.57376 7.94624 145.38752 23.63392 42.92608 14.68416 81.12128 35.4304 113.50016 61.6448 60.04736 48.59904 93.10208 110.7968 93.10208 175.16544s-33.0752 126.58688-93.10208 175.16544c-32.37888 26.2144-70.57408 46.96064-113.50016 61.6448-45.81376 15.68768-94.72 23.63392-145.38752 23.63392zM480.01024 896l0 0c265.09312 0 480.01024-173.91616 480.01024-388.44416s-214.89664-388.44416-480.01024-388.44416c-25.45664 0-50.44224 1.61792-74.83392 4.7104-103.09632-102.68672-222.16704-121.09824-341.15584-123.82208l0 25.12896c64.24576 31.35488 115.99872 88.4736 115.99872 153.74336 0 9.1136-0.7168 18.04288-2.02752 26.78784-108.56448 71.20896-177.9712 179.97824-177.9712 301.89568 0 214.528 214.89664 388.44416 480.01024 388.44416zM996.00384 25.31328c0-55.95136 36.31104-104.89856 91.99616-131.76832l0-21.54496c-103.1168 2.31424-197.79584 18.10432-287.15008 106.12736-21.13536-2.64192-42.8032-4.03456-64.86016-4.03456-95.47776 0-183.3984 25.76384-253.60384 69.03808 144.67072 0.512 281.25184 46.85824 384.83968 130.6624 52.20352 42.25024 93.3888 91.83232 122.40896 147.3536 30.76096 58.85952 46.36672 121.58976 46.36672 186.40896 0 10.4448-0.45056 20.82816-1.24928 31.17056 72.56064-59.92448 117.248-141.6192 117.248-231.66976 0-104.48896-60.14976-197.71392-154.23488-258.7648-1.14688-7.49568-1.76128-15.1552-1.76128-22.95808z"  horiz-adv-x="1152" />

    
    <glyph glyph-name="binoculars" unicode="&#59149;" d="M63.99872 896l383.99232 0 0-63.99872-383.99232 0zM575.98848 896l383.99232 0 0-63.99872-383.99232 0zM951.973281 576.0064l-55.9912 0 0 255.99488-255.99488 0 0-255.99488-255.99488 0 0 255.99488-255.99488 0 0-255.99488-55.9912 0c-39.607528 0-72.00624-32.398712-72.00624-72.00624l0-559.99392c0-39.607528 32.398712-72.00624 72.00624-72.00624l303.99904 0c39.607528 0 72.00624 32.398712 72.00624 72.00624l0 375.9848 127.99744 0 0-375.9848c0-39.607528 32.398712-72.00624 72.00624-72.00624l303.99904 0c39.607528 0 72.00624 32.398712 72.00624 72.00624l0 559.99392c0 39.607528-32.398712 72.00624-72.00624 72.00624zM347.9892-63.9808l-247.98736 0c-19.803764 0-36.00312 14.397152-36.00312 32.0096s16.199356 32.0096 36.00312 32.0096l247.98736 0c19.803764 0 36.00312-14.397152 36.00312-32.0096s-16.199356-32.0096-36.00312-32.0096zM543.99936 384.01024l-63.99872 0c-17.591968 0-32.0096 14.397152-32.0096 32.0096s14.397152 32.0096 32.0096 32.0096l63.99872 0c17.591968 0 32.0096-14.397152 32.0096-32.0096s-14.397152-32.0096-32.0096-32.0096zM923.97768-63.9808l-247.98736 0c-19.803764 0-36.00312 14.397152-36.00312 32.0096s16.199356 32.0096 36.00312 32.0096l247.98736 0c19.803764 0 36.00312-14.397152 36.00312-32.0096s-16.199356-32.0096-36.00312-32.0096z"  horiz-adv-x="1025" />

    
    <glyph glyph-name="blocked" unicode="&#59150;" d="M874.04544 746.04544c-96.70656 96.70656-225.28 149.95456-362.04544 149.95456s-265.33888-53.248-362.04544-149.95456c-96.70656-96.70656-149.95456-225.28-149.95456-362.04544s53.248-265.33888 149.95456-362.04544c96.70656-96.70656 225.28-149.95456 362.04544-149.95456s265.33888 53.248 362.04544 149.95456c96.70656 96.70656 149.95456 225.28 149.95456 362.04544s-53.248 265.33888-149.95456 362.04544zM896 384c0-82.82112-26.35776-159.58016-71.10656-222.37184l-535.26528 535.26528c62.79168 44.7488 139.5712 71.10656 222.37184 71.10656 211.74272 0 384-172.25728 384-384zM128 384c0 82.82112 26.35776 159.58016 71.10656 222.37184l535.26528-535.26528c-62.79168-44.7488-139.5712-71.10656-222.37184-71.10656-211.74272 0-384 172.25728-384 384z"  horiz-adv-x="1024" />

    
    <glyph glyph-name="blog" unicode="&#59151;" d="M383.99232 896l0-96.00832c73.48077 0 144.708786-14.376672 211.718006-42.699946 64.776944-27.401692 122.959461-66.640587 172.950141-116.631267s89.229575-108.173197 116.631267-172.950141c28.343753-67.00922 42.720426-138.237235 42.720426-211.718006l96.00832 0c0 353.457251-286.529949 639.9872-639.9872 639.9872zM383.99232 704.00384l0-96.00832c94.0218 0 182.411712-36.617508 248.888462-103.094258s103.094258-154.866663 103.094258-248.888462l96.00832 0c0 247.413932-200.577108 447.99104-447.99104 447.99104zM480.00064 512.00768l-63.99872-63.99872-224.00576-63.99872-191.99616-416.00192 25.374213-25.374213 232.791504 232.791504c-1.413092 5.283734-2.170837 10.833703-2.170837 16.567989 0 35.347773 28.650947 63.99872 63.99872 63.99872s63.99872-28.650947 63.99872-63.99872-28.650947-63.99872-63.99872-63.99872c-5.734285 0-11.284254 0.757745-16.567989 2.170837l-232.791504-232.791504 25.374213-25.374213 416.00192 191.99616 63.99872 224.00576 63.99872 63.99872-160.00704 160.00704z"  horiz-adv-x="1025" />

    
    <glyph glyph-name="blogger" unicode="&#59152;" d="M957.78816 512l-57.40544 0c-35.16416 0-65.98656 29.73696-68.38272 64l0 0c0 182.66112-147.2512 320-331.18208 320l-167.8336 0c-183.808 0-332.86144-148.00896-332.98432-330.67008l0-362.8032c0-182.66112 149.17632-330.52672 332.98432-330.52672l358.42048 0c183.95136 0 332.5952 147.88608 332.5952 330.52672l0 234.37312c0 36.49536-29.45024 75.07968-66.21184 75.07968zM320 640l192 0c35.20512 0 64-28.79488 64-64s-28.79488-64-64-64l-192 0c-35.20512 0-64 28.79488-64 64s28.79488 64 64 64zM704 128l-384 0c-35.20512 0-64 28.79488-64 64s28.79488 64 64 64l384 0c35.20512 0 64-28.79488 64-64s-28.79488-64-64-64z"  horiz-adv-x="1025" />

    
    <glyph glyph-name="blogger2" unicode="&#59153;" d="M853.36064 896l-682.7008 0c-94.24896 0-170.65984-76.41088-170.65984-170.68032l0-682.63936c0-94.26944 76.41088-170.68032 170.65984-170.68032l682.7008 0c94.24896 0 170.63936 76.41088 170.63936 170.68032l0 682.63936c0 94.26944-76.41088 170.68032-170.65984 170.68032zM896.02048 247.9104c0-136.99072-111.49312-247.9104-249.4464-247.9104l-268.82048 0c-137.85088 0-249.73312 110.91968-249.73312 247.9104l0 272.09728c0.1024 136.99072 111.88224 247.99232 249.73312 247.99232l125.87008 0c137.95328 0 248.40192-102.99392 248.40192-240.00512 1.80224-25.7024 24.92416-48.00512 51.28192-48.00512l43.04896 0c27.56608 0 49.664-28.93824 49.664-56.32l0-175.77984zM704.02048 256c0-35.20512-28.79488-64-64-64l-256 0c-35.20512 0-64 28.79488-64 64l0 0c0 35.20512 28.79488 64 64 64l256 0c35.20512 0 64-28.79488 64-64l0 0zM576.02048 512c0-35.20512-28.79488-64-64-64l-128 0c-35.20512 0-64 28.79488-64 64l0 0c0 35.20512 28.79488 64 64 64l128 0c35.20512 0 64-28.79488 64-64l0 0z"  horiz-adv-x="1025" />

    
    <glyph glyph-name="bold" unicode="&#59154;" d="M707.87072 411.3408c37.49888 44.544 60.12928 102.01088 60.12928 164.6592 0 141.16864-114.85184 256-256 256l-320 0 0-896 384 0c141.14816 0 256 114.85184 256 256 0 92.95872-49.80736 174.4896-124.12928 219.3408zM384 704l101.49888 0c55.97184 0 101.49888-57.42592 101.49888-128s-45.52704-128-101.49888-128l-101.49888 0 0 256zM543.00672 64l-159.00672 0 0 256 159.00672 0c58.44992 0 106.00448-57.42592 106.00448-128s-47.55456-128-106.00448-128z"  horiz-adv-x="1024" />

    
    <glyph glyph-name="book" unicode="&#59155;" d="M895.99232 767.98208l0-831.98336-671.9968 0c-53.02166 0-96.00832 42.98666-96.00832 96.00832s42.966181 96.00832 96.00832 96.00832l607.99808 0 0 767.98464-639.9872 0c-70.388352 0-127.99744-57.609088-127.99744-127.99744l0-767.98464c0-70.408832 57.609088-127.99744 127.99744-127.99744l767.98464 0 0 895.98208-63.99872 0zM224.056959 63.99616l0 0c-0.02048 0-0.040959 0-0.061439 0-17.673887 0-32.0096-14.335713-32.0096-32.0096s14.335713-32.0096 32.0096-32.0096c0.02048 0 0.040959 0 0.061439 0l0 0 607.875202 0 0 63.99872-607.875202 0z"  horiz-adv-x="1024" />

    
    <glyph glyph-name="bookmark" unicode="&#59156;" d="M192 896l0-1024 320 320 320-320 0 1024z"  horiz-adv-x="1024" />

    
    <glyph glyph-name="bookmarks" unicode="&#59157;" d="M256 768l0-896 320 320 320-320 0 896zM768 896l-640 0 0-896 64 64 0 768 576 0z"  horiz-adv-x="1024" />

    
    <glyph glyph-name="books" unicode="&#59158;" d="M224.01024 768l-192 0c-17.59232 0-32.01024-14.39744-32.01024-32.01024l0-704c0-17.59232 14.39744-32.01024 32.01024-32.01024l192 0c17.59232 0 32.01024 14.39744 32.01024 32.01024l0 704c0 17.59232-14.39744 32.01024-32.01024 32.01024zM192 576l-128 0 0 64 128 0 0-64zM544.01024 768l-192 0c-17.59232 0-32.01024-14.39744-32.01024-32.01024l0-704c0-17.59232 14.39744-32.01024 32.01024-32.01024l192 0c17.59232 0 32.01024 14.39744 32.01024 32.01024l0 704c0 17.59232-14.39744 32.01024-32.01024 32.01024zM512 576l-128 0 0 64 128 0 0-64zM765.09184 718.52032l-171.45856-86.38464c-15.70816-7.92576-22.09792-27.25888-14.17216-42.96704l287.96928-571.55584c7.92576-15.70816 27.25888-22.09792 42.96704-14.17216l171.45856 86.38464c15.70816 7.92576 22.09792 27.25888 14.17216 42.96704l-287.96928 571.55584c-7.92576 15.70816-27.25888 22.09792-42.96704 14.17216zM928.01024 31.98976c0-17.67424-14.336-32.01024-32.01024-32.01024s-32.01024 14.336-32.01024 32.01024c0 17.67424 14.336 32.01024 32.01024 32.01024s32.01024-14.336 32.01024-32.01024z"  horiz-adv-x="1147" />

    
    <glyph glyph-name="boxadd" unicode="&#59159;" d="M832 832l-640 0-192-192 0-672.01024c0-17.67424 14.336-32.01024 32.01024-32.01024l960 0c17.67424 0 32.01024 14.336 32.01024 32.01024l0 672.01024-192 192zM512 64l-320 256 192 0 0 192 256 0 0-192 192 0-320-256zM154.50112 704l64 64 586.97728 0 64-64-714.97728 0z"  horiz-adv-x="1025" />

    
    <glyph glyph-name="boxremove" unicode="&#59160;" d="M832 832l-640 0-192-192 0-672.01024c0-17.67424 14.336-32.01024 32.01024-32.01024l960 0c17.67424 0 32.01024 14.336 32.01024 32.01024l0 672.01024-192 192zM640 256l0-192-256 0 0 192-192 0 320 256 320-256-192 0zM154.50112 704l64 64 586.97728 0 64-64-714.97728 0z"  horiz-adv-x="1025" />

    
    <glyph glyph-name="briefcase" unicode="&#59161;" d="M960 640l-256 0 0 64c0 35.20512-28.79488 64-64 64l-256 0c-35.20512 0-64-28.79488-64-64l0-64-256 0c-35.20512 0-64-28.79488-64-64l0-576c0-35.20512 28.79488-64 64-64l896 0c35.20512 0 64 28.79488 64 64l0 576c0 35.20512-28.79488 64-64 64zM384 703.87712c0.04096 0.04096 0.08192 0.08192 0.12288 0.12288l255.77472 0c0.04096-0.04096 0.08192-0.08192 0.12288-0.12288l0-63.87712-256 0 0 63.87712zM960 384l-128 0 0-96.01024c0-17.59232-14.39744-32.01024-32.01024-32.01024l-64 0c-17.6128 0-32.01024 14.39744-32.01024 32.01024l0 96.01024-384 0 0-96.01024c0-17.59232-14.39744-32.01024-32.01024-32.01024l-64 0c-17.59232 0-32.01024 14.39744-32.01024 32.01024l0 96.01024-128 0 0 64 896 0 0-64z"  horiz-adv-x="1024" />

    
    <glyph glyph-name="brightnesscontrast" unicode="&#59162;" d="M512 640c-141.39392 0-256-114.60608-256-256s114.60608-256 256-256 256 114.60608 256 256-114.60608 256-256 256zM512 223.98976l0 320c88.22784 0 160.01024-71.7824 160.01024-160.01024s-71.7824-160.01024-160.01024-160.01024zM512 64c35.34848 0 64-28.65152 64-64l0-64c0-35.34848-28.65152-64-64-64s-64 28.65152-64 64l0 64c0 35.34848 28.65152 64 64 64zM512 704c-35.34848 0-64 28.65152-64 64l0 64c0 35.34848 28.65152 64 64 64s64-28.65152 64-64l0-64c0-35.34848-28.65152-64-64-64zM960 448c35.34848 0 64-28.65152 64-64s-28.65152-64-64-64l-64 0c-35.34848 0-64 28.65152-64 64s28.65152 64 64 64l64 0zM192 384c0-35.34848-28.65152-64-64-64l-64 0c-35.34848 0-64 28.65152-64 64s28.65152 64 64 64l64 0c35.34848 0 64-28.65152 64-64zM828.78464 157.71648l45.2608-45.2608c24.9856-24.9856 24.9856-65.51552 0-90.50112s-65.51552-24.9856-90.50112 0l-45.2608 45.2608c-24.9856 24.9856-24.9856 65.51552 0 90.50112s65.51552 24.9856 90.50112 0zM195.21536 610.28352l-45.2608 45.2608c-24.9856 24.9856-24.9856 65.51552 0 90.50112s65.51552 24.9856 90.50112 0l45.2608-45.2608c24.9856-24.9856 24.9856-65.51552 0-90.50112s-65.51552-24.9856-90.50112 0zM828.78464 610.28352c-24.9856-24.9856-65.51552-24.9856-90.50112 0s-24.9856 65.51552 0 90.50112l45.2608 45.2608c24.9856 24.9856 65.51552 24.9856 90.50112 0s24.9856-65.51552 0-90.50112l-45.2608-45.2608zM195.21536 157.71648c24.9856 24.9856 65.51552 24.9856 90.50112 0s24.9856-65.51552 0-90.50112l-45.2608-45.2608c-24.9856-24.9856-65.51552-24.9856-90.50112 0s-24.9856 65.51552 0 90.50112l45.2608 45.2608z"  horiz-adv-x="1024" />

    
    <glyph glyph-name="bubble" unicode="&#59163;" d="M512 832c282.76736 0 512-186.24512 512-416.01024s-229.23264-416.01024-512-416.01024c-27.15648 0-53.80096 1.7408-79.83104 5.03808-109.9776-109.9776-241.2544-129.69984-368.16896-132.58752l0 26.91072c68.52608 33.5872 128 94.74048 128 164.63872 0 9.74848-0.75776 19.33312-2.17088 28.69248-115.79392 76.26752-189.82912 192.75776-189.82912 323.29728 0 229.74464 229.23264 416.01024 512 416.01024z"  horiz-adv-x="1024" />

    
    <glyph glyph-name="bubble2" unicode="&#59164;" d="M512 704c-54.92736 0-107.99104-8.66304-157.696-25.74336-46.71488-16.05632-88.30976-38.74816-123.63776-67.44064-66.21184-53.80096-102.68672-122.9824-102.68672-194.80576 0-40.30464 11.18208-79.38048 33.25952-116.14208 22.75328-37.92896 56.97536-72.58112 98.97984-100.2496 30.35136-19.98848 50.76992-51.95776 56.17664-87.90016 1.80224-11.9808 2.92864-24.08448 3.3792-36.12672 7.4752 6.18496 14.7456 12.84096 21.87264 19.968 24.14592 24.14592 56.77056 37.49888 90.50112 37.49888 5.36576 0 10.752-0.32768 16.15872-1.024 20.97152-2.6624 42.3936-4.01408 63.67232-4.01408 54.92736 0 107.99104 8.66304 157.696 25.74336 46.71488 16.05632 88.30976 38.74816 123.63776 67.44064 66.21184 53.80096 102.68672 122.9824 102.68672 194.80576s-36.4544 141.02528-102.68672 194.80576c-35.328 28.69248-76.92288 51.38432-123.63776 67.44064-49.70496 17.08032-102.76864 25.74336-157.696 25.74336zM512 832l0 0c282.76736 0 512-186.24512 512-416.01024s-229.23264-416.01024-512-416.01024c-27.15648 0-53.80096 1.7408-79.83104 5.03808-109.9776-109.9776-241.2544-129.69984-368.16896-132.58752l0 26.91072c68.52608 33.5872 128 94.74048 128 164.63872 0 9.74848-0.75776 19.33312-2.17088 28.69248-115.79392 76.26752-189.82912 192.75776-189.82912 323.29728 0 229.74464 229.23264 416.01024 512 416.01024z"  horiz-adv-x="1024" />

    
    <glyph glyph-name="circleright" unicode="&#59165;" d="M512 896c-282.76736 0-512-229.23264-512-512s229.23264-512 512-512 512 229.23264 512 512-229.23264 512-512 512zM512-32.01024c-229.74464 0-416.01024 186.24512-416.01024 416.01024s186.24512 416.01024 416.01024 416.01024 416.01024-186.24512 416.01024-416.01024-186.24512-416.01024-416.01024-416.01024zM354.73408 189.25568l90.5216-90.5216 285.24544 285.26592-285.26592 285.24544-90.50112-90.50112 194.74432-194.74432z"  horiz-adv-x="1024" />

    
    <glyph glyph-name="circleup" unicode="&#59166;" d="M0 384c0-282.76736 229.23264-512 512-512s512 229.23264 512 512-229.23264 512-512 512-512-229.23264-512-512zM928.01024 384c0-229.74464-186.24512-416.01024-416.01024-416.01024s-416.01024 186.24512-416.01024 416.01024 186.24512 416.01024 416.01024 416.01024 416.01024-186.24512 416.01024-416.01024zM706.74432 226.73408l90.5216 90.5216-285.26592 285.24544-285.24544-285.26592 90.50112-90.50112 194.74432 194.74432z"  horiz-adv-x="1024" />

    
    <glyph glyph-name="clearformatting" unicode="&#59167;" d="M0 0l576 0 0-128-576 0zM896 768l-302.55104 0-183.76704-704-132.28032 0 183.76704 704-269.14816 0 0 128 704 0zM929.77152-128l-129.78176 129.78176-129.78176-129.78176-62.21824 62.21824 129.78176 129.78176-129.78176 129.78176 62.21824 62.21824 129.78176-129.78176 129.78176 129.78176 62.21824-62.21824-129.78176-129.78176 129.78176-129.78176z"  horiz-adv-x="1024" />

    
    <glyph glyph-name="clipboard" unicode="&#59168;" d="M928.00192 768.00256l-288.00448 0c0 70.695546-57.301894 127.99744-127.99744 127.99744s-127.99744-57.301894-127.99744-127.99744l-288.00448 0c-17.673887 0-32.0096-14.335713-32.0096-32.0096l0-831.98336c0-17.673887 14.335713-32.0096 32.0096-32.0096l831.98336 0c17.673887 0 32.0096 14.335713 32.0096 32.0096l0 831.98336c0 17.673887-14.335713 32.0096-32.0096 32.0096zM512 832.00128c35.347773 0 63.99872-28.650947 63.99872-63.99872s-28.650947-63.99872-63.99872-63.99872c-35.347773 0-63.99872 28.650947-63.99872 63.99872s28.650947 63.99872 63.99872 63.99872zM895.99232-63.9808l-767.98464 0 0 767.98464 127.99744 0 0-96.00832c0-17.673887 14.335713-32.0096 32.0096-32.0096l447.99104 0c17.673887 0 32.0096 14.335713 32.0096 32.0096l0 96.00832 127.99744 0 0-767.98464zM448.00128 37.51605l-205.246455 237.256055 58.51019 58.51019 146.736265-114.747145 274.733705 242.744585 58.51019-58.51019z"  horiz-adv-x="1024" />

    
    <glyph glyph-name="clock" unicode="&#59169;" d="M658.7392 146.7392l-210.7392 210.7392 0 282.50112 128 0 0-229.49888 173.2608-173.2608zM512 896c-282.76736 0-512-229.23264-512-512s229.23264-512 512-512 512 229.23264 512 512-229.23264 512-512 512zM512 0c-212.0704 0-384 171.9296-384 384s171.9296 384 384 384c212.0704 0 384-171.9296 384-384s-171.9296-384-384-384z"  horiz-adv-x="1024" />

    
    <glyph glyph-name="clock2" unicode="&#59170;" d="M512 896c-282.76736 0-512-229.23264-512-512s229.23264-512 512-512 512 229.23264 512 512-229.23264 512-512 512zM658.7392 146.7392l-210.7392 210.7392 0 282.50112 128 0 0-229.49888 173.2608-173.2608-90.5216-90.5216z"  horiz-adv-x="1024" />

    
    <glyph glyph-name="bug" unicode="&#59171;" d="M1024.02048 320l0 64-193.29024 0c-5.85728 72.68352-31.78496 139.01824-71.68 192.24576l161.93536 0 70.06208 280.24832-62.09536 15.52384-57.93792-231.75168-174.67392 0c-0.90112 0.69632-1.80224 1.37216-2.70336 2.048 6.71744 19.49696 10.36288 40.42752 10.36288 62.19776 0 105.75872-85.95456 191.488-192 191.488s-192-85.72928-192-191.50848c0-21.77024 3.64544-42.7008 10.36288-62.19776-0.90112-0.67584-1.80224-1.37216-2.70336-2.048l-174.67392 0-57.93792 231.75168-62.09536-15.52384 70.06208-280.24832 161.93536 0c-39.87456-53.22752-65.80224-119.56224-71.65952-192.24576l-193.29024 0 0-64 193.37216 0c3.80928-45.6704 15.50336-88.82176 33.62816-127.75424l-123.98592 0-70.06208-280.22784 62.09536-15.52384 57.93792 231.77216 112.35328 0c58.69568-78.0288 147.39456-127.75424 246.66112-127.75424s187.96544 49.72544 246.66112 127.75424l112.35328 0 57.93792-231.77216 62.09536 15.52384-70.06208 280.22784-123.98592 0c18.1248 38.93248 29.83936 82.08384 33.62816 127.75424l193.37216 0z"  horiz-adv-x="1025" />

    
    <glyph glyph-name="bullhorn" unicode="&#59172;" d="M1024 466.7392c0 200.92928-58.79808 363.9296-131.4816 365.21984 0.28672 0 0.57344 0.02048 0.88064 0.02048l-82.944 0c0 0-194.80576-146.3296-475.2384-203.75552-8.56064-45.30176-14.0288-99.26656-14.0288-161.50528s5.46816-116.20352 14.0288-161.50528c280.43264-57.42592 475.2384-203.75552 475.2384-203.75552l82.944 0c-0.28672 0-0.57344 0.02048-0.88064 0.04096 72.704 1.29024 131.4816 164.29056 131.4816 365.21984zM864.82944 156.75392c-9.37984 0-19.53792 9.74848-24.73984 15.54432-12.63616 14.06976-24.80128 35.96288-35.18464 63.32416-23.26528 61.2352-36.06528 143.31904-36.06528 231.1168s12.8 169.8816 36.06528 231.1168c10.40384 27.36128 22.56896 49.27488 35.18464 63.32416 5.2224 5.81632 15.36 15.54432 24.73984 15.54432s19.53792-9.74848 24.73984-15.54432c12.63616-14.06976 24.80128-35.96288 35.18464-63.32416 23.26528-61.2352 36.06528-143.31904 36.06528-231.1168s-12.8-169.8816-36.06528-231.1168c-10.38336-27.36128-22.56896-49.2544-35.18464-63.32416-5.20192-5.79584-15.36-15.54432-24.73984-15.54432zM251.82208 466.7392c0 51.95776 3.80928 102.42048 11.0592 149.0944-47.37024-6.5536-88.94464-10.32192-140.34944-10.32192-67.05152 0-67.05152 0-67.05152 0l-55.45984-94.67904 0-88.1664 55.45984-94.67904c0 0 0 0 67.05152 0 51.4048 0 92.95872-3.76832 140.34944-10.32192-7.22944 46.67392-11.03872 97.13664-11.03872 149.0944zM368.14848 253.82912l-128 24.51456 81.83808-321.536c4.23936-16.62976 20.74624-25.04704 36.67968-18.65728l118.55872 47.45216c15.95392 6.36928 22.3232 23.9616 14.19264 39.07584l-123.2896 229.15072zM864.82944 347.27936c-3.62496 0-7.53664 3.74784-9.54368 6.00064-4.87424 5.4272-9.56416 13.86496-13.55776 24.41216-8.97024 23.59296-13.90592 55.23456-13.90592 89.088s4.93568 65.47456 13.90592 89.088c4.01408 10.5472 8.704 18.98496 13.55776 24.41216 2.00704 2.23232 5.91872 6.00064 9.54368 6.00064s7.53664-3.74784 9.54368-6.00064c4.87424-5.4272 9.56416-13.86496 13.55776-24.41216 8.97024-23.59296 13.90592-55.23456 13.90592-89.088s-4.93568-65.47456-13.90592-89.088c-4.01408-10.5472-8.704-18.98496-13.55776-24.41216-2.00704-2.23232-5.91872-6.00064-9.54368-6.00064z"  horiz-adv-x="1024" />

    
    <glyph glyph-name="calculator" unicode="&#59173;" d="M384 832l-320 0c-35.20512 0-64-28.79488-64-64l0-320c0-35.20512 28.79488-64 64-64l320 0c35.20512 0 64 28.79488 64 64l0 320c0 35.20512-28.79488 64-64 64zM384 576l-320 0 0 64 320 0 0-64zM896 832l-320 0c-35.20512 0-64-28.79488-64-64l0-832c0-35.20512 28.79488-64 64-64l320 0c35.20512 0 64 28.79488 64 64l0 832c0 35.20512-28.79488 64-64 64zM896 256l-320 0 0 64 320 0 0-64zM896 448l-320 0 0 64 320 0 0-64zM384 320l-320 0c-35.20512 0-64-28.79488-64-64l0-320c0-35.20512 28.79488-64 64-64l320 0c35.20512 0 64 28.79488 64 64l0 320c0 35.20512-28.79488 64-64 64zM384 64l-128 0 0-128-64 0 0 128-128 0 0 64 128 0 0 128 64 0 0-128 128 0 0-64z"  horiz-adv-x="1024" />

    
    <glyph glyph-name="calendar" unicode="&#59174;" d="M320 512l128 0 0-128-128 0zM512 512l128 0 0-128-128 0zM704 512l128 0 0-128-128 0zM128 128l128 0 0-128-128 0zM320 128l128 0 0-128-128 0zM512 128l128 0 0-128-128 0zM320 320l128 0 0-128-128 0zM512 320l128 0 0-128-128 0zM704 320l128 0 0-128-128 0zM128 320l128 0 0-128-128 0zM832 896l0-64-128 0 0 64-448 0 0-64-128 0 0 64-128 0 0-1024 960 0 0 1024-128 0zM896-64l-832 0 0 704 832 0 0-704z"  horiz-adv-x="1024" />

    
    <glyph glyph-name="camera" unicode="&#59175;" d="M304.04608 287.98976c0-114.87232 93.12256-207.99488 207.99488-207.99488s207.99488 93.12256 207.99488 207.99488-93.12256 207.99488-207.99488 207.99488-207.99488-93.12256-207.99488-207.99488zM960.04096 640l-224.01024 0c-15.99488 64-32.01024 128-96.01024 128l-256 0c-64 0-79.99488-64-96.01024-128l-224.01024 0c-35.20512 0-64-28.79488-64-64l0-576c0-35.20512 28.79488-64 64-64l896 0c35.20512 0 64 28.79488 64 64l0 576c0 35.20512-28.79488 64-64 64zM512.04096 3.9936c-156.85632 0-283.99616 127.13984-283.99616 283.99616s127.13984 283.99616 283.99616 283.99616c156.85632 0 283.99616-127.13984 283.99616-283.99616s-127.13984-283.99616-283.99616-283.99616zM960.04096 448l-128 0 0 64 128 0 0-64z"  horiz-adv-x="1025" />

    
    <glyph glyph-name="cancelcircle" unicode="&#59176;" d="M512 896c-282.76736 0-512-229.23264-512-512s229.23264-512 512-512 512 229.23264 512 512-229.23264 512-512 512zM512-32.01024c-229.74464 0-416.01024 186.24512-416.01024 416.01024s186.24512 416.01024 416.01024 416.01024 416.01024-186.24512 416.01024-416.01024-186.24512-416.01024-416.01024-416.01024zM672.01024 640l-160.01024-160.01024-160.01024 160.01024-96.01024-96.01024 160.01024-160.01024-160.01024-160.01024 96.01024-96.01024 160.01024 160.01024 160.01024-160.01024 96.01024 96.01024-160.01024 160.01024 160.01024 160.01024z"  horiz-adv-x="1024" />

    
    <glyph glyph-name="cart" unicode="&#59177;" d="M384.00256-31.99168c0-53.02166-42.98666-96.00832-96.00832-96.00832s-96.00832 42.98666-96.00832 96.00832c0 53.02166 42.98666 96.00832 96.00832 96.00832s96.00832-42.98666 96.00832-96.00832zM1023.98976-31.99168c0-53.02166-42.98666-96.00832-96.00832-96.00832s-96.00832 42.98666-96.00832 96.00832c0 53.02166 42.98666 96.00832 96.00832 96.00832s96.00832-42.98666 96.00832-96.00832zM1023.98976 384.01024l0 383.99232-767.98464 0c0 35.347773-28.650947 63.99872-63.99872 63.99872l-191.99616 0 0-63.99872 127.99744 0 48.065599-412.049359c-29.285814-23.449131-48.065599-59.49321-48.065599-99.940401 0-70.695546 57.301894-127.99744 127.99744-127.99744l767.98464 0 0 63.99872-767.98464 0c-35.347773 0-63.99872 28.650947-63.99872 63.99872 0 0.225275 0.02048 0.430071 0.02048 0.655347l831.962881 127.342093z"  horiz-adv-x="1024" />

    
    <glyph glyph-name="checkboxchecked" unicode="&#59178;" d="M896 896l-768 0c-70.41024 0-128-57.61024-128-128l0-768c0-70.41024 57.61024-128 128-128l768 0c70.41024 0 128 57.61024 128 128l0 768c0 70.41024-57.61024 128-128 128zM448 101.49888l-237.2608 237.2608 90.50112 90.50112 146.7392-146.7392 306.74944 306.74944 90.50112-90.50112-397.25056-397.25056z"  horiz-adv-x="1024" />

    
    <glyph glyph-name="checkboxunchecked" unicode="&#59179;" d="M896 896l-768 0c-70.41024 0-128-57.61024-128-128l0-768c0-70.41024 57.61024-128 128-128l768 0c70.41024 0 128 57.61024 128 128l0 768c0 70.41024-57.61024 128-128 128zM896 0l-768 0 0 768 768 0 0-768z"  horiz-adv-x="1024" />

    
    <glyph glyph-name="checkmark" unicode="&#59180;" d="M864.03072 768l-480.01024-480.01024-224.01024 224.01024-160.01024-160.01024 384-384 640 640z"  horiz-adv-x="1025" />

    
    <glyph glyph-name="checkmark2" unicode="&#59181;" d="M397.86496-21.68832l-397.86496 391.59808 197.38624 194.27328 200.4992-197.3248 429.62944 422.85056 197.38624-194.27328-626.9952-617.12384zM108.3392 369.90976l289.52576-284.95872 518.656 510.48448-89.02656 87.63392-429.62944-422.85056-200.4992 197.3248-89.02656-87.63392z"  horiz-adv-x="1025" />

    
    <glyph glyph-name="chrome" unicode="&#59182;" d="M258.27328 449.45408l-146.5344 253.80864c93.81888 117.47328 238.24384 192.73728 400.26112 192.73728 187.43296 0 351.31392-100.74112 440.5248-251.00288l-417.77152 0c-7.49568 0.65536-15.09376 1.00352-22.75328 1.00352-121.87648 0-224.58368-83.64032-253.72672-196.54656zM695.296 571.00288l293.45792 0c22.7328-57.93792 35.2256-120.99584 35.2256-187.00288 0-280.82176-226.0992-508.80512-506.18368-511.91808l209.38752 362.68032c29.47072 42.37312 46.7968 93.81888 46.7968 149.23776 0 73.17504-30.16704 139.42784-78.68416 187.00288zM326.00064 384c0 102.56384 83.43552 185.99936 185.99936 185.99936s185.99936-83.43552 185.99936-185.99936c0-102.56384-83.43552-185.99936-185.99936-185.99936s-185.99936 83.43552-185.99936 185.99936zM582.18496 131.56352l-146.57536-253.87008c-246.53824 36.88448-435.6096 249.50784-435.6096 506.32704 0 91.21792 23.87968 176.8448 65.69984 251.02336l209.03936-362.04544c41.86112-89.10848 132.48512-150.97856 237.28128-150.97856 24.30976 0 47.84128 3.33824 70.18496 9.56416z"  horiz-adv-x="1024" />

    
    <glyph glyph-name="circledown" unicode="&#59183;" d="M1024 384c0 282.76736-229.23264 512-512 512s-512-229.23264-512-512 229.23264-512 512-512 512 229.23264 512 512zM96.01024 384c0 229.74464 186.24512 416.01024 416.01024 416.01024s416.01024-186.24512 416.01024-416.01024-186.24512-416.01024-416.01024-416.01024-416.01024 186.24512-416.01024 416.01024zM317.25568 541.26592l-90.5216-90.5216 285.26592-285.24544 285.24544 285.26592-90.50112 90.50112-194.74432-194.74432z"  horiz-adv-x="1024" />

    
    <glyph glyph-name="circleleft" unicode="&#59184;" d="M512-128c282.76736 0 512 229.23264 512 512s-229.23264 512-512 512-512-229.23264-512-512 229.23264-512 512-512zM512 799.98976c229.74464 0 416.01024-186.24512 416.01024-416.01024s-186.24512-416.01024-416.01024-416.01024-416.01024 186.24512-416.01024 416.01024 186.24512 416.01024 416.01024 416.01024zM669.26592 578.74432l-90.5216 90.5216-285.24544-285.26592 285.26592-285.24544 90.50112 90.50112-194.74432 194.74432z"  horiz-adv-x="1024" />

    
    <glyph glyph-name="compass2" unicode="&#59185;" d="M512 896c-282.76736 0-512-229.23264-512-512s229.23264-512 512-512 512 229.23264 512 512-229.23264 512-512 512zM96.01024 384c0 229.74464 186.24512 416.01024 416.01024 416.01024 109.568 0 209.22368-42.3936 283.52512-111.63648l-411.52512-176.37376-176.37376-411.52512c-69.24288 74.30144-111.63648 173.95712-111.63648 283.52512zM585.17504 310.82496l-256.08192-109.75232 109.75232 256.08192 146.3296-146.3296zM512-32.01024c-109.568 0-209.24416 42.3936-283.52512 111.63648l411.52512 176.37376 176.37376 411.52512c69.24288-74.30144 111.63648-173.95712 111.63648-283.52512 0-229.74464-186.24512-416.01024-416.01024-416.01024z"  horiz-adv-x="1024" />

    
    <glyph glyph-name="confused" unicode="&#59186;" d="M512-128c282.76736 0 512 229.23264 512 512s-229.23264 512-512 512-512-229.23264-512-512 229.23264-512 512-512zM512 799.98976c229.74464 0 416.01024-186.24512 416.01024-416.01024s-186.24512-416.01024-416.01024-416.01024-416.01024 186.24512-416.01024 416.01024 186.24512 416.01024 416.01024 416.01024zM256 576c0 35.34848 28.65152 64 64 64s64-28.65152 64-64c0-35.34848-28.65152-64-64-64s-64 28.65152-64 64zM640 576c0 35.34848 28.65152 64 64 64s64-28.65152 64-64c0-35.34848-28.65152-64-64-64s-64 28.65152-64 64zM726.09792 256l64.86016 0c9.23648-72.4992-32.4608-144.52736-103.95648-170.55744-82.90304-30.16704-174.8992 12.71808-205.08672 95.62112-18.10432 49.74592-73.29792 75.48928-123.04384 57.36448-45.568-16.5888-70.9632-64.3072-60.98944-110.42816l-64.86016 0c-9.23648 72.4992 32.44032 144.52736 103.95648 170.55744 82.90304 30.18752 174.8992-12.71808 205.08672-95.62112 18.10432-49.74592 73.29792-75.48928 123.04384-57.36448 45.568 16.5888 70.9632 64.3072 60.98944 110.42816z"  horiz-adv-x="1024" />

    
    <glyph glyph-name="confused2" unicode="&#59187;" d="M512 896c-282.76736 0-512-229.23264-512-512s229.23264-512 512-512c282.76736 0 512 229.23264 512 512s-229.23264 512-512 512zM704 640c35.34848 0 64-28.65152 64-64s-28.65152-64-64-64-64 28.65152-64 64c0 35.34848 28.65152 64 64 64zM320 640c35.34848 0 64-28.65152 64-64s-28.65152-64-64-64-64 28.65152-64 64c0 35.34848 28.65152 64 64 64zM687.0016 85.44256c-82.90304-30.18752-174.8992 12.71808-205.08672 95.62112-18.10432 49.74592-73.29792 75.4688-123.04384 57.36448-45.568-16.5888-70.9632-64.28672-60.98944-110.42816l-64.86016 0c-9.23648 72.4992 32.44032 144.52736 103.95648 170.55744 82.90304 30.18752 174.8992-12.71808 205.08672-95.62112 18.10432-49.74592 73.29792-75.4688 123.04384-57.36448 45.568 16.5888 70.9632 64.28672 60.98944 110.42816l64.86016 0c9.23648-72.4992-32.4608-144.52736-103.95648-170.55744z"  horiz-adv-x="1024" />

    
    <glyph glyph-name="connection" unicode="&#59188;" d="M640 320c105.86112 0 201.87136-43.06944 271.40096-112.59904l-90.46016-90.46016c-46.34624 46.34624-110.34624 75.0592-180.9408 75.0592s-134.57408-28.71296-180.9408-75.0592l-90.46016 90.46016c69.5296 69.5296 165.53984 112.59904 271.40096 112.59904zM187.45344 388.54656c120.87296 120.87296 281.6 187.45344 452.54656 187.45344s331.6736-66.58048 452.54656-187.45344l-90.50112-90.50112c-96.70656 96.70656-225.28 149.95456-362.04544 149.95456s-265.33888-53.248-362.04544-149.95456l-90.50112 90.50112zM988.7744 761.56928c106.7008-45.13792 202.50624-109.73184 284.7744-192l0 0-90.50112-90.50112c-145.05984 145.05984-337.92 224.93184-543.06816 224.93184s-398.00832-79.89248-543.06816-224.93184l-90.50112 90.50112c82.26816 82.26816 178.0736 146.86208 284.7744 192 110.51008 46.73536 227.86048 70.43072 348.7744 70.43072s238.2848-23.69536 348.7744-70.43072zM576 0c0 35.34848 28.65152 64 64 64s64-28.65152 64-64c0-35.34848-28.65152-64-64-64s-64 28.65152-64 64z"  horiz-adv-x="1291" />

    
    <glyph glyph-name="contrast" unicode="&#59189;" d="M512 896c-282.76736 0-512-229.23264-512-512s229.23264-512 512-512 512 229.23264 512 512-229.23264 512-512 512zM128 384c0 212.0704 171.9296 384 384 384l0-768c-212.0704 0-384 171.9296-384 384z"  horiz-adv-x="1024" />

    
    <glyph glyph-name="cool" unicode="&#59190;" d="M512-128c282.76736 0 512 229.23264 512 512s-229.23264 512-512 512-512-229.23264-512-512 229.23264-512 512-512zM512 799.98976c229.74464 0 416.01024-186.24512 416.01024-416.01024s-186.24512-416.01024-416.01024-416.01024-416.01024 186.24512-416.01024 416.01024 186.24512 416.01024 416.01024 416.01024zM800.01024 640c17.59232 0 32.01024-14.39744 32.01024-32.01024l0-96.01024c0-35.20512-28.79488-64-64-64l-128 0c-35.20512 0-64 28.79488-64 64l-128 0c0-35.20512-28.79488-64-64-64l-128 0c-35.20512 0-64 28.79488-64 64l0 96.01024c0 17.59232 14.39744 32.01024 32.01024 32.01024l192 0c17.59232 0 32.01024-14.39744 32.01024-32.01024l0-32.01024 128 0 0 32.01024c0 17.59232 14.39744 32.01024 32.01024 32.01024l192 0zM512 128c93.20448 0 174.77632 49.82784 219.5456 124.27264l54.8864-32.93184c-55.97184-93.06112-157.92128-155.3408-274.432-155.3408-48.45568 0-94.39232 10.79296-135.53664 30.08512l33.15712 55.27552c31.35488-13.7216 65.96608-21.36064 102.37952-21.36064z"  horiz-adv-x="1024" />

    
    <glyph glyph-name="cloud" unicode="&#59191;" d="M1024 238.44864c0 82.08384-56.66816 150.89664-132.99712 169.472-3.23584 128.69632-108.46208 232.05888-237.85472 232.05888-75.79648 0-143.2576-35.49184-186.85952-90.7264-24.43264 31.60064-62.68928 51.95776-105.71776 51.95776-73.80992 0-133.632-59.88352-133.632-133.71392 0-6.43072 0.47104-12.75904 1.37216-18.944-11.22304 2.02752-22.77376 3.13344-34.57024 3.13344-107.008 0-193.7408-86.79424-193.7408-193.8432s86.7328-193.8432 193.72032-193.8432l656.26112 0.02048c96.13312 0.18432 173.99808 78.21312 173.99808 174.44864z"  horiz-adv-x="1024" />

    
    <glyph glyph-name="cloudcheck" unicode="&#59192;" d="M892.27264 381.50144c2.43712 11.10016 3.72736 22.65088 3.72736 34.48832 0 88.3712-71.63904 160.01024-160.01024 160.01024-14.2336 0-28.01664-1.86368-41.12384-5.34528-24.80128 77.35296-97.28 133.34528-182.86592 133.34528-87.3472 0-161.05472-58.32704-184.32-138.17856-22.7328 6.61504-46.7968 10.17856-71.68 10.17856-141.39392 0-256-114.60608-256-256s114.60608-256 256-256l608.01024 0c88.3712 0 160.01024 71.63904 160.01024 160.01024 0 78.72512-56.85248 144.15872-131.72736 157.51168zM416.01024 128l-160.01024 160.01024 64 64 96.01024-96.01024 224.01024 224.01024 64-64-288.01024-288.01024z"  horiz-adv-x="1025" />

    
    <glyph glyph-name="clouddownload" unicode="&#59193;" d="M891.00288 535.94112c-3.23584 128.69632-108.46208 232.05888-237.85472 232.05888-75.79648 0-143.2576-35.49184-186.85952-90.7264-24.43264 31.60064-62.68928 51.95776-105.71776 51.95776-73.80992 0-133.632-59.88352-133.632-133.71392 0-6.43072 0.47104-12.75904 1.37216-18.944-11.22304 2.02752-22.77376 3.13344-34.57024 3.13344-107.008 0-193.7408-86.79424-193.7408-193.8432s86.7328-193.8432 193.72032-193.8432l91.7504 0 226.5088-234.51648 226.5088 234.51648 111.47264 0.02048c96.13312 0.18432 173.99808 78.21312 173.99808 174.44864 0 82.08384-56.66816 150.89664-132.99712 169.472zM512 64l-192 192 128 0 0 192 128 0 0-192 128 0-192-192z"  horiz-adv-x="1024" />

    
    <glyph glyph-name="cloudupload" unicode="&#59194;" d="M892.27264 509.50144c2.43712 11.10016 3.72736 22.65088 3.72736 34.48832 0 88.3712-71.63904 160.01024-160.01024 160.01024-14.21312 0-28.01664-1.86368-41.12384-5.34528-24.80128 77.35296-97.28 133.34528-182.86592 133.34528-87.3472 0-161.05472-58.32704-184.32-138.17856-22.7328 6.61504-46.7968 10.17856-71.68 10.17856-141.39392 0-256-114.60608-256-256s114.60608-256 256-256l128 0 0-192 256 0 0 192 224.01024 0c88.3712 0 160.01024 71.63904 160.01024 160.01024 0 78.72512-56.85248 144.15872-131.72736 157.51168zM576 256l0-192-128 0 0 192-160.01024 0 224.01024 224.01024 224.01024-224.01024-160.01024 0z"  horiz-adv-x="1025" />

    
    <glyph glyph-name="clubs" unicode="&#59195;" d="M786.8416 503.23456c-59.02336 0-112.08704-24.59648-149.85216-64.69632-15.99488-16.97792-43.76576-37.10976-73.80992-54.80448 14.11072 53.8624 58.6752 121.69216 89.62048 151.4496 39.64928 38.17472 63.97952 91.83232 63.97952 151.49056 0 114.8928-91.48416 208.09728-204.77952 209.32608-113.31584-1.2288-204.8-94.43328-204.8-209.32608 0-59.67872 24.35072-113.33632 63.97952-151.49056 30.94528-29.75744 75.50976-97.5872 89.62048-151.4496-30.04416 17.69472-57.81504 37.82656-73.80992 54.80448-37.76512 40.09984-90.8288 64.69632-149.85216 64.69632-114.3808 0-207.07328-93.65504-207.07328-209.32608 0-115.63008 92.69248-209.34656 207.07328-209.34656 59.04384 0 112.08704 25.35424 149.85216 65.45408 16.81408 17.87904 46.44864 40.1408 78.29504 58.63424-3.01056-147.70176-73.5232-256.16384-145.32608-298.9056l0-37.74464 384.02048 0 0 37.74464c-71.7824 42.74176-142.31552 151.22432-145.32608 298.9056 31.8464-18.49344 61.48096-40.77568 78.29504-58.63424 37.76512-40.09984 90.80832-65.45408 149.85216-65.45408 114.3808 0 207.07328 93.696 207.07328 209.34656 0 115.67104-92.69248 209.32608-207.07328 209.32608z"  horiz-adv-x="1024" />

    
    <glyph glyph-name="codepen" unicode="&#59196;" d="M945.74592 527.95392l-448 298.65984c-10.752 7.168-24.76032 7.168-35.49184 0l-448-298.65984c-8.9088-5.9392-14.25408-15.93344-14.25408-26.624l0-298.65984c0-10.69056 5.34528-20.6848 14.25408-26.624l448-298.65984c5.36576-3.584 11.5712-5.36576 17.75616-5.36576s12.36992 1.78176 17.75616 5.36576l448 298.65984c8.9088 5.9392 14.25408 15.93344 14.25408 26.624l0 298.65984c0 10.69056-5.34528 20.6848-14.25408 26.624zM480.01024 241.13152l-166.31808 110.87872 166.31808 110.87872 166.31808-110.87872-166.31808-110.87872zM512 518.4512l0 221.75744 358.31808-238.87872-166.31808-110.87872-192 128zM448 518.4512l-192-128-166.31808 110.87872 358.31808 238.87872 0-221.75744zM198.30784 351.98976l-134.30784-89.53856 0 179.07712 134.30784-89.53856zM256 313.5488l192-128 0-221.75744-358.31808 238.87872 166.31808 110.87872zM512 185.5488l192 128 166.31808-110.87872-358.31808-238.87872 0 221.75744zM761.69216 351.98976l134.30784 89.53856 0-179.07712-134.30784 89.53856z"  horiz-adv-x="1024" />

    
    <glyph glyph-name="cog" unicode="&#59197;" d="M933.7856 285.75744c-53.71904 93.06112-21.42208 212.29568 72.15104 266.48576l-100.61824 174.2848c-28.75392-16.85504-62.17728-26.5216-97.85344-26.5216-107.54048 0-194.70336 87.73632-194.70336 195.9936l-201.25696 0c0.26624-33.40288-8.06912-67.2768-25.94816-98.24256-53.71904-93.06112-173.1584-124.70272-266.8544-70.7584l-100.61824-174.2848c28.9792-16.46592 54.04672-40.59136 71.8848-71.4752 53.63712-92.91776 21.504-211.92704-71.70048-266.21952l100.61824-174.2848c28.65152 16.6912 61.91104 26.25536 97.40288 26.25536 107.19232 0 194.1504-87.18336 194.70336-194.94912l201.25696 0c-0.08192 33.0752 8.27392 66.56 25.96864 97.21856 53.63712 92.89728 172.76928 124.60032 266.40384 71.00416l100.61824 174.2848c-28.7744 16.46592-53.69856 40.48896-71.43424 71.22944zM512 176.66048c-114.50368 0-207.33952 92.81536-207.33952 207.33952s92.83584 207.33952 207.33952 207.33952c114.50368 0 207.33952-92.83584 207.33952-207.33952s-92.81536-207.33952-207.33952-207.33952z"  horiz-adv-x="1024" />

    
    <glyph glyph-name="cogs" unicode="&#59198;" d="M363.720491 173.945042l41.306508 57.812727-45.25899 45.25899-57.812727-41.286029c-10.731091 6.0004-22.199432 10.772049-34.26167 14.192072l-11.673133 70.079757-63.99744 0-11.673133-70.079757c-12.062238-3.420023-23.551058-8.191672-34.26167-14.192072l-57.812727 41.306508-45.25899-45.25899 41.306508-57.812727c-6.0004-10.710612-10.772049-22.199432-14.192072-34.26167l-70.079757-11.673133 0-63.99744 70.079757-11.673133c3.420023-12.062238 8.191672-23.551058 14.192072-34.26167l-41.306508-57.812727 45.25899-45.25899 57.812727 41.286029c10.731091-6.0004 22.199432-10.772049 34.26167-14.192072l11.673133-70.079757 63.99744 0 11.673133 70.079757c12.062238 3.420023 23.551058 8.191672 34.26167 14.192072l57.812727-41.286029 45.25899 45.25899-41.306508 57.812727c6.0004 10.710612 10.772049 22.199432 14.192072 34.26167l70.079757 11.673133 0 63.99744-70.079757 11.673133c-3.420023 12.062238-8.191672 23.551058-14.192072 34.26167zM224.01152 31.983361c-35.347066 0-63.99744 28.650374-63.99744 63.99744s28.650374 63.99744 63.99744 63.99744 63.99744-28.650374 63.99744-63.99744-28.650374-63.99744-63.99744-63.99744zM1023.969281 511.974401l0 63.99744-67.376505 12.24655c-1.24923 8.048318-2.826127 15.973761-4.730691 23.796808l57.546498 37.108276-24.4931 59.123395-66.946442-14.458302c-4.218711 6.901484-8.724131 13.618655-13.49578 20.131035l39.012839 56.338226-45.25899 45.25899-56.338226-39.012839c-6.51238 4.771649-13.229551 9.277069-20.131035 13.49578l14.458302 66.946442-59.123395 24.4931-37.108276-57.546498c-7.802568 1.884085-15.74849 3.481461-23.796808 4.730691l-12.24655 67.376505-63.99744 0-12.24655-67.376505c-8.048318-1.24923-15.973761-2.826127-23.796808-4.730691l-37.087796 57.546498-59.123395-24.4931 14.458302-66.946442c-6.901484-4.218711-13.618655-8.724131-20.131035-13.49578l-56.338226 39.012839-45.25899-45.25899 39.012839-56.338226c-4.771649-6.51238-9.277069-13.229551-13.49578-20.131035l-66.946442 14.458302-24.4931-59.123395 57.546498-37.108276c-1.884085-7.802568-3.481461-15.74849-4.730691-23.796808l-67.376505-12.24655 0-63.99744 67.376505-12.24655c1.24923-8.048318 2.826127-15.973761 4.730691-23.796808l-57.546498-37.108276 24.4931-59.123395 66.946442 14.458302c4.218711-6.901484 8.724131-13.618655 13.49578-20.131035l-39.012839-56.338226 45.25899-45.25899 56.338226 39.012839c6.51238-4.771649 13.229551-9.277069 20.131035-13.49578l-14.458302-66.946442 59.123395-24.4931 37.108276 57.546498c7.802568-1.884085 15.74849-3.481461 23.796808-4.730691l12.24655-67.376505 63.99744 0 12.24655 67.376505c8.048318 1.24923 15.973761 2.826127 23.796808 4.730691l37.108276-57.546498 59.123395 24.4931-14.458302 66.946442c6.901484 4.218711 13.618655 8.724131 20.131035 13.49578l56.338226-39.012839 45.25899 45.25899-39.012839 56.338226c4.771649 6.51238 9.277069 13.229551 13.49578 20.131035l66.946442-14.458302 24.4931 59.123395-57.546498 37.108276c1.884085 7.802568 3.481461 15.74849 4.730691 23.796808l67.376505 12.24655zM671.9936 404.786369c-76.878845 0-139.196992 62.318147-139.196992 139.196992s62.318147 139.196992 139.196992 139.196992 139.196992-62.318147 139.196992-139.196992c0-76.878845-62.318147-139.196992-139.196992-139.196992z"  horiz-adv-x="1024" />

    
    <glyph glyph-name="coindollar" unicode="&#59199;" d="M480.01088 832.00128c-265.087818 0-480.00064-214.892342-480.00064-480.00064s214.892342-480.00064 480.00064-480.00064c265.087818 0 480.00064 214.892342 480.00064 480.00064s-214.892342 480.00064-480.00064 480.00064zM480.01088-31.99168c-212.066159 0-383.99232 171.926161-383.99232 383.99232s171.926161 383.99232 383.99232 383.99232c212.066159 0 383.99232-171.926161 383.99232-383.99232s-171.926161-383.99232-383.99232-383.99232zM512 384.01024l0 127.99744 127.99744 0 0 63.99872-127.99744 0 0 63.99872-63.99872 0 0-63.99872-127.99744 0 0-255.99488 127.99744 0 0-127.99744-127.99744 0 0-63.99872 127.99744 0 0-63.99872 63.99872 0 0 63.99872 127.99744 0 0 255.99488-127.99744 0zM448.00128 384.01024l-63.99872 0 0 127.99744 63.99872 0 0-127.99744zM575.99872 192.01408l-63.99872 0 0 127.99744 63.99872 0 0-127.99744z"  horiz-adv-x="1024" />

    
    <glyph glyph-name="coineuro" unicode="&#59200;" d="M480.01088 832.00128c-265.087818 0-480.00064-214.892342-480.00064-480.00064s214.892342-480.00064 480.00064-480.00064c265.087818 0 480.00064 214.892342 480.00064 480.00064s-214.892342 480.00064-480.00064 480.00064zM480.01088-31.99168c-212.066159 0-383.99232 171.926161-383.99232 383.99232s171.926161 383.99232 383.99232 383.99232c212.066159 0 383.99232-171.926161 383.99232-383.99232s-171.926161-383.99232-383.99232-383.99232zM670.819224 251.671127c-15.277774 8.888142-34.856263 3.706806-43.744405-11.570969-17.264295-29.654447-49.089578-48.086078-83.065219-48.086078l-127.99744 0c-41.716926 0-77.289974 26.746345-90.49931 63.99872l154.49803 0c17.673887 0 32.0096 14.335713 32.0096 32.0096s-14.335713 32.0096-32.0096 32.0096l-160.00704 0 0 63.99872 160.00704 0c17.673887 0 32.0096 14.335713 32.0096 32.0096s-14.335713 32.0096-32.0096 32.0096l-154.49803 0c13.209336 37.252375 48.782384 63.99872 90.49931 63.99872l127.99744 0c33.97564 0 65.821404-18.431631 83.065219-48.086078 8.888142-15.277774 28.48711-20.459111 43.744405-11.570969s20.459111 28.466631 11.570969 43.744405c-28.671427 49.294374-81.693086 79.911362-138.401072 79.911362l-127.99744 0c-77.269495 0-141.903082-55.049139-156.771265-127.99744l-35.224896 0c-17.673887 0-32.0096-14.335713-32.0096-32.0096s14.335713-32.0096 32.0096-32.0096l32.0096 0 0-63.99872-32.0096 0c-17.673887 0-32.0096-14.335713-32.0096-32.0096s14.335713-32.0096 32.0096-32.0096l35.224896 0c14.868183-72.948301 79.50177-127.99744 156.771265-127.99744l127.99744 0c56.687506 0 109.709166 30.616988 138.401072 79.911362 8.888142 15.277774 3.706806 34.856263-11.570969 43.744405z"  horiz-adv-x="1024" />

    
    <glyph glyph-name="coinpound" unicode="&#59201;" d="M480.01088 832.00128c-265.087818 0-480.00064-214.892342-480.00064-480.00064s214.892342-480.00064 480.00064-480.00064c265.087818 0 480.00064 214.892342 480.00064 480.00064s-214.892342 480.00064-480.00064 480.00064zM480.01088-31.99168c-212.066159 0-383.99232 171.926161-383.99232 383.99232s171.926161 383.99232 383.99232 383.99232c212.066159 0 383.99232-171.926161 383.99232-383.99232s-171.926161-383.99232-383.99232-383.99232zM608.00832 192.01408l-224.00576 0 0 127.99744 96.00832 0c17.673887 0 32.0096 14.335713 32.0096 32.0096s-14.335713 32.0096-32.0096 32.0096l-96.00832 0 0 32.0096c0 52.939741 43.068579 96.00832 96.00832 96.00832 34.159957 0 66.046679-18.411152 83.188096-48.02464 8.847183-15.298254 28.425671-20.52055 43.723926-11.673367s20.52055 28.425671 11.673367 43.723926c-28.528069 49.335333-81.631647 79.972801-138.585388 79.972801-88.226075 0-160.00704-71.780964-160.00704-160.00704l0-32.0096-32.0096 0c-17.673887 0-32.0096-14.335713-32.0096-32.0096s14.335713-32.0096 32.0096-32.0096l32.0096 0 0-191.99616 288.00448 0c17.673887 0 32.0096 14.335713 32.0096 32.0096s-14.335713 32.0096-32.0096 32.0096z"  horiz-adv-x="1024" />

    
    <glyph glyph-name="coinyen" unicode="&#59202;" d="M480.01088 832.00128c-265.087818 0-480.00064-214.892342-480.00064-480.00064s214.892342-480.00064 480.00064-480.00064c265.087818 0 480.00064 214.892342 480.00064 480.00064s-214.892342 480.00064-480.00064 480.00064zM480.01088-31.99168c-212.066159 0-383.99232 171.926161-383.99232 383.99232s171.926161 383.99232 383.99232 383.99232c212.066159 0 383.99232-171.926161 383.99232-383.99232s-171.926161-383.99232-383.99232-383.99232zM608.00832 320.01152c17.673887 0 32.0096 14.335713 32.0096 32.0096s-14.335713 32.0096-32.0096 32.0096l-68.197036 0 94.820504 142.251235c9.809724 14.704346 5.836683 34.569549-8.867663 44.379272s-34.569549 5.836683-44.379272-8.867663l-101.373973-152.060959-101.373973 152.060959c-9.809724 14.704346-29.674927 18.677386-44.379272 8.867663s-18.677386-29.674927-8.867663-44.379272l94.840983-142.251235-68.197036 0c-17.673887 0-32.0096-14.335713-32.0096-32.0096s14.335713-32.0096 32.0096-32.0096l96.00832 0 0-63.99872-96.00832 0c-17.673887 0-32.0096-14.335713-32.0096-32.0096s14.335713-32.0096 32.0096-32.0096l96.00832 0 0-96.00832c0-17.673887 14.335713-32.0096 32.0096-32.0096s32.0096 14.335713 32.0096 32.0096l0 96.00832 96.00832 0c17.673887 0 32.0096 14.335713 32.0096 32.0096s-14.335713 32.0096-32.0096 32.0096l-96.00832 0 0 63.99872 96.00832 0z"  horiz-adv-x="1024" />

    
    <glyph glyph-name="command" unicode="&#59203;" d="M736.01024 0c-88.22784 0-160.01024 71.7824-160.01024 160.01024l0 96.01024-128 0 0-96.01024c0-88.22784-71.7824-160.01024-160.01024-160.01024s-160.01024 71.7824-160.01024 160.01024 71.7824 160.01024 160.01024 160.01024l96.01024 0 0 128-96.01024 0c-88.22784 0-160.01024 71.7824-160.01024 160.01024s71.7824 160.01024 160.01024 160.01024 160.01024-71.7824 160.01024-160.01024l0-96.01024 128 0 0 96.01024c0 88.22784 71.7824 160.01024 160.01024 160.01024s160.01024-71.7824 160.01024-160.01024-71.7824-160.01024-160.01024-160.01024l-96.01024 0 0-128 96.01024 0c88.22784 0 160.01024-71.7824 160.01024-160.01024s-71.7824-160.01024-160.01024-160.01024zM640 256l0-96.01024c0-52.9408 43.06944-96.01024 96.01024-96.01024s96.01024 43.06944 96.01024 96.01024-43.06944 96.01024-96.01024 96.01024l-96.01024 0zM288.01024 256c-52.9408 0-96.01024-43.06944-96.01024-96.01024s43.06944-96.01024 96.01024-96.01024 96.01024 43.06944 96.01024 96.01024l0 96.01024-96.01024 0zM448 320l128 0 0 128-128 0 0-128zM640 512l96.01024 0c52.9408 0 96.01024 43.06944 96.01024 96.01024s-43.06944 96.01024-96.01024 96.01024-96.01024-43.06944-96.01024-96.01024l0-96.01024zM288.01024 704c-52.9408 0-96.01024-43.06944-96.01024-96.01024s43.06944-96.01024 96.01024-96.01024l96.01024 0 0 96.01024c0 52.9408-43.06944 96.01024-96.01024 96.01024z"  horiz-adv-x="1024" />

    
    <glyph glyph-name="compass" unicode="&#59204;" d="M544.001368-127.979522c-2.293714 0-4.628387 0.245755-6.942581 0.757745-14.642907 3.256255-25.067019 16.240315-25.067019 31.231375l0 480.000641-480.000641 0c-15.01154 0-27.9956 10.424112-31.231375 25.067019s4.116398 29.593008 17.714846 35.921202l959.980802 447.991041c12.205836 5.693326 26.643947 3.153857 36.166957-6.369153s12.062479-23.961121 6.369153-36.166957l-447.991041-959.980802c-5.345173-11.448091-16.772785-18.472591-28.9991-18.472591zM176.249362 448.008959l367.752005 0c17.673887 0 32.0096-14.335713 32.0096-32.0096l0-367.752005 349.791405 749.53253-749.53253-349.770925z"  horiz-adv-x="1024" />

    
    <glyph glyph-name="diamonds" unicode="&#59205;" d="M512 896l-320-512 320-512 320 512z"  horiz-adv-x="1024" />

    
    <glyph glyph-name="dice" unicode="&#59206;" d="M863.99296 704.00384l-511.98976 0c-88.0008 0-160.00704-72.00624-160.00704-160.00704l0-511.98976c0-88.0008 72.00624-160.00704 160.00704-160.00704l511.98976 0c88.0008 0 160.00704 72.00624 160.00704 160.00704l0 511.98976c0 88.0008-72.00624 160.00704-160.00704 160.00704zM416.00192 0.01792c-53.02166 0-96.00832 42.98666-96.00832 96.00832s42.98666 96.00832 96.00832 96.00832 96.00832-42.98666 96.00832-96.00832-42.98666-96.00832-96.00832-96.00832zM416.00192 384.01024c-53.02166 0-96.00832 42.98666-96.00832 96.00832s42.98666 96.00832 96.00832 96.00832 96.00832-42.98666 96.00832-96.00832-42.98666-96.00832-96.00832-96.00832zM607.99808 192.01408c-53.02166 0-96.00832 42.98666-96.00832 96.00832s42.98666 96.00832 96.00832 96.00832 96.00832-42.98666 96.00832-96.00832-42.98666-96.00832-96.00832-96.00832zM799.99424 0.01792c-53.02166 0-96.00832 42.98666-96.00832 96.00832s42.98666 96.00832 96.00832 96.00832 96.00832-42.98666 96.00832-96.00832-42.98666-96.00832-96.00832-96.00832zM799.99424 384.01024c-53.02166 0-96.00832 42.98666-96.00832 96.00832s42.98666 96.00832 96.00832 96.00832 96.00832-42.98666 96.00832-96.00832-42.98666-96.00832-96.00832-96.00832zM828.747585 768.00256c-14.929621 72.804944-79.706566 127.99744-156.750785 127.99744l-511.98976 0c-88.0008 0-160.00704-72.00624-160.00704-160.00704l0-511.98976c0-77.044219 55.192496-141.821164 127.99744-156.750785l0 636.751425c0 35.204416 28.794304 63.99872 63.99872 63.99872l636.751425 0z"  horiz-adv-x="1024" />

    
    <glyph glyph-name="display" unicode="&#59207;" d="M0 832l0-640 1024 0 0 640-1024 0zM960 256l-896 0 0 512 896 0 0-512zM672.01024 128l-320 0-32.01024-128-64-64 512 0-64 64z"  horiz-adv-x="1024" />

    
    <glyph glyph-name="download" unicode="&#59208;" d="M512 320l256 256-192 0 0 256-128 0 0-256-192 0zM744.73472 424.73472l-71.74144-71.74144 260.07552-96.99328-421.0688-157.02016-421.0688 157.02016 260.07552 96.99328-71.74144 71.74144-279.26528-104.73472 0-256 512-192 512 192 0 256z"  horiz-adv-x="1024" />

    
    <glyph glyph-name="download2" unicode="&#59209;" d="M896.04096 384l-160.01024 0-224.01024-224.01024-224.01024 224.01024-160.01024 0-128-256 0-64 1024 0 0 64-128 256zM0.04096 0l1024 0 0-64-1024 0 0 64zM576.04096 576l0 256-128 0 0-256-224.01024 0 288.01024-288.01024 288.01024 288.01024-224.01024 0z"  horiz-adv-x="1025" />

    
    <glyph glyph-name="download3" unicode="&#59210;" d="M736.01024 448l-256-256-256 256 160.01024 0 0 384 192 0 0-384zM480.01024 192l-480.01024 0 0-256 960 0 0 256-480.01024 0zM896 64l-128 0 0 64 128 0 0-64z"  horiz-adv-x="1024" />

    
    <glyph glyph-name="drawer" unicode="&#59211;" d="M1016.99584 243.99872l-256 320c-6.08256 7.59808-15.2576 12.00128-24.9856 12.00128l-448 0c-9.728 0-18.92352-4.42368-24.9856-12.00128l-256-320c-4.54656-5.67296-7.00416-12.71808-7.00416-19.98848l0-288.01024c0-35.34848 28.65152-64 64-64l896 0c35.34848 0 64 28.65152 64 64l0 288.01024c0 7.2704-2.47808 14.31552-7.00416 19.98848zM960 192l-224.01024 0-128-128-192 0-128 128-224.01024 0 0 20.76672 239.37024 299.23328 417.23904 0 239.37024-299.23328 0-20.76672zM736.01024 384l-448 0c-17.67424 0-32.01024 14.336-32.01024 32.01024s14.336 32.01024 32.01024 32.01024l448 0c17.67424 0 32.01024-14.336 32.01024-32.01024s-14.336-32.01024-32.01024-32.01024zM800.01024 256l-576 0c-17.67424 0-32.01024 14.336-32.01024 32.01024s14.336 32.01024 32.01024 32.01024l576 0c17.67424 0 32.01024-14.336 32.01024-32.01024s-14.336-32.01024-32.01024-32.01024z"  horiz-adv-x="1025" />

    
    <glyph glyph-name="cool2" unicode="&#59212;" d="M512 896c-282.76736 0-512-229.23264-512-512s229.23264-512 512-512c282.76736 0 512 229.23264 512 512s-229.23264 512-512 512zM512 64c-48.45568 0-94.39232 10.79296-135.53664 30.08512l33.15712 55.27552c31.35488-13.7216 65.96608-21.36064 102.37952-21.36064 93.20448 0 174.77632 49.82784 219.5456 124.27264l54.8864-32.93184c-55.97184-93.06112-157.92128-155.3408-274.432-155.3408zM832 512c0-35.20512-28.79488-64-64-64l-128 0c-35.20512 0-64 28.79488-64 64l-128 0c0-35.20512-28.79488-64-64-64l-128 0c-35.20512 0-64 28.79488-64 64l0 96.01024c0 17.59232 14.39744 32.01024 32.01024 32.01024l192 0c17.59232 0 32.01024-14.39744 32.01024-32.01024l0-32.01024 128 0 0 32.01024c0 17.59232 14.39744 32.01024 32.01024 32.01024l192 0c17.59232 0 32.01024-14.39744 32.01024-32.01024l0-96.01024z"  horiz-adv-x="1024" />

    
    <glyph glyph-name="copy" unicode="&#59213;" d="M640 640l0 256-448 0-192-192 0-576 384 0 0-256 640 0 0 768-384 0zM192 805.49888l0-101.49888-101.49888 0 101.49888 101.49888zM64 192l0 448 192 0 0 192 320 0 0-192-192-192 0-256-320 0zM576 549.49888l0-101.49888-101.49888 0 101.49888 101.49888zM960-64l-512 0 0 448 192 0 0 192 320 0 0-640z"  horiz-adv-x="1024" />

    
    <glyph glyph-name="crop" unicode="&#59215;" d="M832 640l192 192-64 64-192-192-448 0 0 192-128 0 0-192-192 0 0-128 192 0 0-512 512 0 0-192 128 0 0 192 192 0 0 128-192 0 0 448zM320 576l320 0-320-320 0 320zM384 192l320 320 0-320-320 0z"  horiz-adv-x="1024" />

    
    <glyph glyph-name="cross" unicode="&#59216;" d="M1014.643493 73.367729c0 0 0 0-0.020479 0l-310.629747 310.629747 310.629747 310.629747c0 0 0 0 0.020479 0 3.338123 3.338123 5.754678 7.249666 7.311104 11.40696 4.239211 11.366001 1.822656 24.677535-7.331583 33.831774l-146.734054 146.734054c-9.154239 9.154239-22.445293 11.570794-33.831774 7.311104-4.157294-1.556425-8.068837-3.972981-11.427439-7.311104 0 0 0 0 0 0l-310.629747-310.650226-310.629747 310.629747c0 0 0 0 0 0-3.338123 3.338123-7.249666 5.754678-11.40696 7.311104-11.386481 4.239211-24.677535 1.822656-33.831774-7.311104l-146.734054-146.734054c-9.154239-9.154239-11.570794-22.445293-7.331583-33.831774 1.556425-4.157294 3.972981-8.068837 7.311104-11.40696 0 0 0 0 0 0l310.629747-310.629747-310.629747-310.650226c0 0 0 0 0 0-3.338123-3.338123-5.754678-7.249666-7.311104-11.40696-4.239211-11.366001-1.822656-24.677535 7.331583-33.831774l146.734054-146.734054c9.154239-9.154239 22.445293-11.570794 33.831774-7.331583 4.157294 1.556425 8.068837 3.972981 11.40696 7.311104 0 0 0 0 0 0l310.629747 310.629747 310.629747-310.629747c0 0 0 0 0.020479 0 3.338123-3.338123 7.249666-5.754678 11.40696-7.311104 11.386481-4.239211 24.677535-1.822656 33.831774 7.331583l146.734054 146.734054c9.154239 9.154239 11.570794 22.445293 7.331583 33.831774-1.556425 4.157294-3.972981 8.068837-7.311104 11.40696z"  horiz-adv-x="1024" />

    
    <glyph glyph-name="crying" unicode="&#59217;" d="M512-128c282.76736 0 512 229.23264 512 512s-229.23264 512-512 512-512-229.23264-512-512 229.23264-512 512-512zM512 799.98976c229.74464 0 416.01024-186.24512 416.01024-416.01024s-186.24512-416.01024-416.01024-416.01024-416.01024 186.24512-416.01024 416.01024 186.24512 416.01024 416.01024 416.01024zM800.01024 512l-128 0c-17.67424 0-32.01024 14.336-32.01024 32.01024s14.336 32.01024 32.01024 32.01024l128 0c17.67424 0 32.01024-14.336 32.01024-32.01024s-14.336-32.01024-32.01024-32.01024zM352.01024 512l-128 0c-17.67424 0-32.01024 14.336-32.01024 32.01024s14.336 32.01024 32.01024 32.01024l128 0c17.67424 0 32.01024-14.336 32.01024-32.01024s-14.336-32.01024-32.01024-32.01024zM608.01024 39.99744c-8.192 0-16.384 3.13344-22.6304 9.37984-4.58752 4.58752-29.42976 14.62272-73.37984 14.62272s-68.79232-10.0352-73.37984-14.62272c-12.4928-12.4928-32.768-12.4928-45.2608 0s-12.4928 32.768 0 45.2608c30.12608 30.12608 92.99968 33.36192 118.62016 33.36192s88.51456-3.25632 118.62016-33.3824c12.4928-12.4928 12.4928-32.768 0-45.2608-6.2464-6.2464-14.4384-9.37984-22.6304-9.37984zM736.01024 320c-17.67424 0-32.01024 14.336-32.01024 32.01024l0 64c0 17.67424 14.336 32.01024 32.01024 32.01024s32.01024-14.336 32.01024-32.01024l0-64c0-17.67424-14.336-32.01024-32.01024-32.01024zM736.01024 128c-17.67424 0-32.01024 14.336-32.01024 32.01024l0 64c0 17.67424 14.336 32.01024 32.01024 32.01024s32.01024-14.336 32.01024-32.01024l0-64c0-17.67424-14.336-32.01024-32.01024-32.01024zM288.01024 320c-17.67424 0-32.01024 14.336-32.01024 32.01024l0 64c0 17.67424 14.336 32.01024 32.01024 32.01024s32.01024-14.336 32.01024-32.01024l0-64c0-17.67424-14.336-32.01024-32.01024-32.01024zM288.01024 128c-17.67424 0-32.01024 14.336-32.01024 32.01024l0 64c0 17.67424 14.336 32.01024 32.01024 32.01024s32.01024-14.336 32.01024-32.01024l0-64c0-17.67424-14.336-32.01024-32.01024-32.01024z"  horiz-adv-x="1024" />

    
    <glyph glyph-name="crying2" unicode="&#59218;" d="M512 896c-282.76736 0-512-229.23264-512-512s229.23264-512 512-512 512 229.23264 512 512-229.23264 512-512 512zM320 159.98976c0-17.67424-14.336-32.01024-32.01024-32.01024s-32.01024 14.336-32.01024 32.01024l0 64c0 17.67424 14.336 32.01024 32.01024 32.01024s32.01024-14.336 32.01024-32.01024l0-64zM320 351.98976c0-17.67424-14.336-32.01024-32.01024-32.01024s-32.01024 14.336-32.01024 32.01024l0 64c0 17.67424 14.336 32.01024 32.01024 32.01024s32.01024-14.336 32.01024-32.01024l0-64zM352.01024 512l-128 0c-17.67424 0-32.01024 14.336-32.01024 32.01024s14.336 32.01024 32.01024 32.01024l128 0c17.67424 0 32.01024-14.336 32.01024-32.01024s-14.336-32.01024-32.01024-32.01024zM630.62016 49.37728c-6.2464-6.2464-14.4384-9.37984-22.6304-9.37984s-16.384 3.13344-22.6304 9.37984c-4.58752 4.58752-29.42976 14.62272-73.37984 14.62272s-68.79232-10.0352-73.37984-14.62272c-12.4928-12.4928-32.768-12.4928-45.2608 0s-12.4928 32.768 0 45.2608c30.12608 30.12608 92.99968 33.36192 118.62016 33.36192s88.51456-3.25632 118.62016-33.3824c12.4928-12.4928 12.4928-32.74752 0-45.2608zM768 159.98976c0-17.67424-14.336-32.01024-32.01024-32.01024s-32.01024 14.336-32.01024 32.01024l0 64c0 17.67424 14.336 32.01024 32.01024 32.01024s32.01024-14.336 32.01024-32.01024l0-64zM768 351.98976c0-17.67424-14.336-32.01024-32.01024-32.01024s-32.01024 14.336-32.01024 32.01024l0 64c0 17.67424 14.336 32.01024 32.01024 32.01024s32.01024-14.336 32.01024-32.01024l0-64zM800.01024 512l-128 0c-17.67424 0-32.01024 14.336-32.01024 32.01024s14.336 32.01024 32.01024 32.01024l128 0c17.67424 0 32.01024-14.336 32.01024-32.01024s-14.336-32.01024-32.01024-32.01024z"  horiz-adv-x="1024" />

    
    <glyph glyph-name="css3" unicode="&#59219;" d="M152.41216 847.48288l-34.36544-171.9296 699.74016 0-21.89312-111.06304-700.19072 0-33.8944-171.88864 699.67872 0-39.0144-196.05504-282.0096-93.42976-244.40832 93.42976 16.73216 85.03296-171.88864 0-40.89856-206.35648 404.23424-154.70592 466.00192 154.70592 153.76384 772.25984z"  horiz-adv-x="1025" />

    
    <glyph glyph-name="database" unicode="&#59221;" d="M512 896c-282.76736 0-512-71.63904-512-160.01024l0-128c0-88.3712 229.23264-160.01024 512-160.01024s512 71.63904 512 160.01024l0 128c0 88.3712-229.23264 160.01024-512 160.01024zM512 351.98976c-282.76736 0-512 71.63904-512 160.01024l0-192c0-88.3712 229.23264-160.01024 512-160.01024s512 71.63904 512 160.01024l0 192c0-88.3712-229.23264-160.01024-512-160.01024zM512 64c-282.76736 0-512 71.63904-512 160.01024l0-192c0-88.3712 229.23264-160.01024 512-160.01024s512 71.63904 512 160.01024l0 192c0-88.3712-229.23264-160.01024-512-160.01024z"  horiz-adv-x="1024" />

    
    <glyph glyph-name="delicious" unicode="&#59222;" d="M853.38112 896l-682.68032 0c-93.88032 0-170.68032-76.82048-170.68032-170.7008l0-682.61888c0-93.92128 76.8-170.68032 170.68032-170.68032l682.68032 0c93.88032 0 170.61888 76.75904 170.61888 170.68032l0 682.61888c0 93.88032-76.75904 170.7008-170.61888 170.7008zM960 42.68032c0-28.32384-11.14112-55.0912-31.37536-75.32544s-46.94016-31.37536-75.264-31.37536l-341.38112 0 0 448-448 0 0 341.2992c0 28.30336 11.14112 55.05024 31.39584 75.30496s46.98112 31.39584 75.28448 31.39584l341.31968 0 0-448 448 0 0-341.31968z"  horiz-adv-x="1024" />

    
    <glyph glyph-name="deviantart" unicode="&#59223;" d="M561.866042 489.00096c-39.03488 2.27328-84.09088-0.04096-136.25344-8.94976l120.34048-216.8832 478.06464 131.25632c-5.16096 12.26752-12.67712 24.22784-22.67136 35.79904-49.47968 57.28256-156.73344 108.38016-273.6128 131.42016l0 0.02048c-114.64704 26.86976-238.7968 25.74336-365.95712 6.5536-4.58752-0.69632-9.13408-1.41312-13.68064-2.19136l-42.27072 78.29504c-41.14432-5.48864-79.81056-14.04928-115.6096-25.47712l40.26368-84.19328c-65.76128-25.47712-119.72608-61.76768-158.65856-105.43104-64.2048-73.07264-89.6-164.90496-58.73664-254.3616 6.20544-18.04288 14.58176-35.16416 24.94464-51.2l478.06464 131.29728-132.75136 245.84192c4.56704 0.88064 9.19552 1.76128 13.9264 2.62144 214.69184 38.2976 332.10368-20.86912 396.41088-83.82464l-163.55328-39.64928-68.25984 109.03552zM174.732602 269.6192c-14.76608 67.35872-3.01056 142.52032 90.39872 192.59392l73.13408-152.94464-163.5328-39.64928z"  horiz-adv-x="1025" />

    
    <glyph glyph-name="deviantart2" unicode="&#59224;" d="M852.00896 896l-679.99744 0c-94.59712 0-171.99104-77.39392-171.99104-171.99104l0-679.99744c0-94.59712 77.39392-171.99104 171.99104-171.99104l679.99744 0c94.59712 0 171.99104 77.39392 171.99104 171.99104l0 679.99744c0 94.59712-77.39392 171.99104-171.99104 171.99104zM960 128l-384 0 0 235.99104c0 0 70.32832-1.00352 107.99104-39.99744l0-67.9936 154.4192 0c-11.81696 37.888-37.0688 75.12064-73.13408 106.65984-61.97248 54.23104-163.18464 81.32608-253.27616 81.32608l0-316.0064-448 0 0 96.01024c0 43.39712 14.6432 86.528 42.37312 124.76416 24.59648 33.91488 58.85952 63.83616 101.86752 88.92416 50.44224 29.40928 110.57152 50.70848 175.77984 62.7712l0 139.55072 128 0 0-128c147.00544 0 221.61408-26.39872 303.77984-74.32192 42.98752-25.088 77.27104-54.9888 101.86752-88.92416 27.70944-38.21568 42.35264-81.36704 42.35264-124.76416l0-96.01024zM199.59808 256c11.81696 37.888 37.0688 75.12064 73.13408 106.65984 31.5392 27.58656 69.61152 49.19296 111.28832 63.75424l0-170.41408-184.40192 0z"  horiz-adv-x="1024" />

    
    <glyph glyph-name="ello" unicode="&#59225;" d="M512 896c-282.76736 0-512-229.23264-512-512s229.23264-512 512-512 512 229.23264 512 512-229.23264 512-512 512zM824.6272 306.40128c-36.80256-142.72512-165.35552-242.40128-312.6272-242.40128s-275.84512 99.67616-312.64768 242.42176c-6.22592 24.1664 8.35584 48.88576 32.52224 55.13216 3.70688 0.96256 7.53664 1.45408 11.34592 1.45408 20.62336 0 38.62528-13.96736 43.78624-33.97632 26.5216-102.74816 119.05024-174.51008 225.01376-174.51008s198.49216 71.76192 224.99328 174.51008c5.16096 20.00896 23.1424 33.97632 43.76576 33.97632 3.82976 0 7.65952-0.49152 11.3664-1.45408 11.69408-3.01056 21.52448-10.42432 27.66848-20.84864s7.84384-22.58944 4.8128-34.304z"  horiz-adv-x="1024" />

    
    <glyph glyph-name="embed" unicode="&#59226;" d="M576 159.98976l96.01024-96.01024 320 320-320 320-96.01024-96.01024 224.01024-224.01024zM448 607.98976l-96.01024 96.01024-320-320 320-320 96.01024 96.01024-224.01024 224.01024z"  horiz-adv-x="1024" />

    
    <glyph glyph-name="embed2" unicode="&#59227;" d="M832 159.98976l96.01024-96.01024 320 320-320 320-96.01024-96.01024 224.01024-224.01024zM448 607.98976l-96.01024 96.01024-320-320 320-320 96.01024 96.01024-224.01024 224.01024zM701.29664 745.472l69.46816-18.944-191.97952-704.02048-69.46816 18.944 191.97952 704.02048z"  horiz-adv-x="1291" />

    
    <glyph glyph-name="enlarge" unicode="&#59228;" d="M1023.979521 895.979521l-415.9936 0 160.00384-160.00384-191.99232-191.99232 96.0064-96.0064 191.99232 191.99232 160.00384-160.00384zM1023.979521-127.979521l0 415.9936-160.00384-160.00384-191.99232 191.99232-96.0064-96.0064 191.99232-191.99232-160.00384-160.00384zM0.020479-127.979521l415.9936 0-160.00384 160.00384 191.99232 191.99232-96.0064 96.0064-191.99232-191.99232-160.00384 160.00384zM0.020479 895.979521l0-415.9936 160.00384 160.00384 191.99232-191.99232 96.0064 96.0064-191.99232 191.99232 160.00384 160.00384z"  horiz-adv-x="1024" />

    
    <glyph glyph-name="enlarge2" unicode="&#59229;" d="M1023.979521 895.979521l0-415.9936-160.00384 160.00384-191.99232-191.99232-96.0064 96.0064 191.99232 191.99232-160.00384 160.00384zM448.00256 223.99616l-191.99232-191.99232 160.00384-160.00384-415.9936 0 0 415.9936 160.00384-160.00384 191.99232 191.99232z"  horiz-adv-x="1024" />

    
    <glyph glyph-name="enter" unicode="&#59230;" d="M384 384l-320 0 0 128 320 0 0 128 192-192-192-192zM1024 896l0-832-384-192 0 192-384 0 0 256 64 0 0-192 320 0 0 576 256 128-576 0 0-256-64 0 0 320z"  horiz-adv-x="1024" />

    
    <glyph glyph-name="envelop" unicode="&#59231;" d="M928.01024 768l-832 0c-52.79744 0-96.01024-43.19232-96.01024-96.01024l0-640c0-52.79744 43.19232-96.01024 96.01024-96.01024l832 0c52.79744 0 96.01024 43.19232 96.01024 96.01024l0 640c0 52.79744-43.19232 96.01024-96.01024 96.01024zM398.7456 345.62048l-270.7456-210.88256 0 501.63712 270.7456-290.75456zM176.37376 640l671.232 0-335.62624-252.0064-335.62624 252.0064zM409.2928 334.29504l102.7072-110.30528 102.7072 110.30528 210.55488-270.29504-626.52416 0 210.55488 270.29504zM625.2544 345.62048l270.7456 290.75456 0-501.63712-270.7456 210.88256z"  horiz-adv-x="1025" />

    
    <glyph glyph-name="equalizer" unicode="&#59232;" d="M448.02048 768l0 15.99488c0 26.39872-21.6064 48.00512-48.00512 48.00512l-160.01024 0c-26.39872 0-48.00512-21.6064-48.00512-48.00512l0-15.99488-192 0 0-128 192 0 0-15.99488c0-26.39872 21.6064-48.00512 48.00512-48.00512l160.01024 0c26.39872 0 48.00512 21.6064 48.00512 48.00512l0 15.99488 576 0 0 128-576 0zM256.02048 640l0 128 128 0 0-128-128 0zM832.02048 463.99488c0 26.39872-21.6064 48.00512-48.00512 48.00512l-160.01024 0c-26.39872 0-48.00512-21.6064-48.00512-48.00512l0-15.99488-576 0 0-128 576 0 0-15.99488c0-26.39872 21.6064-48.00512 48.00512-48.00512l160.01024 0c26.39872 0 48.00512 21.6064 48.00512 48.00512l0 15.99488 192 0 0 128-192 0 0 15.99488zM640.02048 320l0 128 128 0 0-128-128 0zM448.02048 143.99488c0 26.39872-21.6064 48.00512-48.00512 48.00512l-160.01024 0c-26.39872 0-48.00512-21.6064-48.00512-48.00512l0-15.99488-192 0 0-128 192 0 0-15.99488c0-26.39872 21.6064-48.00512 48.00512-48.00512l160.01024 0c26.39872 0 48.00512 21.6064 48.00512 48.00512l0 15.99488 576 0 0 128-576 0 0 15.99488zM256.02048 0l0 128 128 0 0-128-128 0z"  horiz-adv-x="1025" />

    
    <glyph glyph-name="equalizer2" unicode="&#59233;" d="M895.99232 447.98848l15.99456 0c26.398192 0 48.00416 21.605968 48.00416 48.00416l0 160.00704c0 26.398192-21.605968 48.00416-48.00416 48.00416l-15.99456 0 0 191.99616-127.99744 0 0-191.99616-15.99456 0c-26.398192 0-48.00416-21.605968-48.00416-48.00416l0-160.00704c0-26.398192 21.605968-48.00416 48.00416-48.00416l15.99456 0 0-575.98848 127.99744 0 0 575.98848zM767.99488 639.98464l127.99744 0 0-127.99744-127.99744 0 0 127.99744zM591.99328 63.99616c26.398192 0 48.00416 21.605968 48.00416 48.00416l0 160.00704c0 26.398192-21.605968 48.00416-48.00416 48.00416l-15.99456 0 0 575.98848-127.99744 0 0-575.98848-15.99456 0c-26.398192 0-48.00416-21.605968-48.00416-48.00416l0-160.00704c0-26.398192 21.605968-48.00416 48.00416-48.00416l15.99456 0 0-191.99616 127.99744 0 0 191.99616 15.99456 0zM448.00128 255.99232l127.99744 0 0-127.99744-127.99744 0 0 127.99744zM271.99968 447.98848c26.398192 0 48.00416 21.605968 48.00416 48.00416l0 160.00704c0 26.398192-21.605968 48.00416-48.00416 48.00416l-15.99456 0 0 191.99616-127.99744 0 0-191.99616-15.99456 0c-26.398192 0-48.00416-21.605968-48.00416-48.00416l0-160.00704c0-26.398192 21.605968-48.00416 48.00416-48.00416l15.99456 0 0-575.98848 127.99744 0 0 575.98848 15.99456 0zM128.00768 639.98464l127.99744 0 0-127.99744-127.99744 0 0 127.99744z"  horiz-adv-x="1024" />

    
    <glyph glyph-name="evil" unicode="&#59234;" d="M632.451313 414.117647c-33.269158 0-60.235294 26.966136-60.235294 60.235294 0 1.098692 0.038551 2.197384 0.096376 3.2768 1.908254 44.660856 42.559849 74.306259 76.792772 91.42272 32.690899 16.345449 65.034842 24.518174 66.403388 24.865129 16.133421 4.028536 32.478871-5.782588 36.526682-21.916009s-5.782588-32.478871-21.916009-36.526682c-16.596028-4.182739-36.256828-11.410974-53.585318-20.084856 10.023153-10.755614 16.171972-25.173534 16.171972-41.037101 0-33.269158-26.966136-60.235294-60.235294-60.235294zM293.861496 535.494174c-16.133421 4.028536-25.944546 20.393261-21.916009 36.526682s20.393261 25.944546 36.526682 21.916009c1.368546-0.346955 33.693214-8.51968 66.403388-24.865129 34.232922-17.116461 74.884518-46.761864 76.792772-91.42272 0.057826-1.079416 0.096376-2.178108 0.096376-3.2768 0-33.269158-26.966136-60.235294-60.235294-60.235294s-60.235294 26.966136-60.235294 60.235294c0 15.863567 6.148819 30.281487 16.171972 41.037101-17.328489 8.693158-37.008565 15.902118-53.585318 20.084856zM511.980725 143.049186c76.754221 0 143.928621 41.037101 180.802259 102.351812l77.486682-46.492009c-52.679379-87.586936-148.631793-146.203106-258.288941-146.203106s-205.609562 58.616169-258.288941 146.203106l77.486682 46.492009c36.873638-61.314711 104.048038-102.351812 180.802259-102.351812zM993.863078 775.529412c0 42.829704-8.963012 83.577675-25.077158 120.470588-31.592207-72.320904-90.76736-129.819106-164.225506-159.233205-81.129713 62.085722-182.537035 98.997911-292.560414 98.997911s-211.449976-36.912188-292.560414-98.997911c-73.458146 29.414099-132.633299 86.912301-164.225506 159.233205-16.114146-36.892913-25.077158-77.640885-25.077158-120.470588 0-69.236856 23.380932-133.018805 62.663981-183.886306-39.880584-70.162071-62.663981-151.291784-62.663981-237.760753 0-266.133986 215.748367-481.882353 481.882353-481.882353s481.882353 215.748367 481.882353 481.882353c0 86.468969-22.802673 167.598682-62.663981 237.760753 39.283049 50.867501 62.663981 114.630174 62.663981 183.886306zM511.980725-37.656696c-216.230249 0-391.539049 175.289525-391.539049 391.539049s175.289525 391.539049 391.539049 391.539049 391.539049-175.289525 391.539049-391.539049-175.289525-391.539049-391.539049-391.539049z"  horiz-adv-x="1024" />

    
    <glyph glyph-name="evil2" unicode="&#59235;" d="M993.863078 775.529412c0 42.829704-8.963012 83.577675-25.077158 120.470588-31.592207-72.320904-90.76736-129.819106-164.225506-159.233205-81.129713 62.085722-182.537035 98.997911-292.560414 98.997911s-211.449976-36.912188-292.560414-98.997911c-73.458146 29.414099-132.633299 86.912301-164.225506 159.233205-16.114146-36.892913-25.077158-77.640885-25.077158-120.470588 0-69.236856 23.380932-133.018805 62.663981-183.886306-39.880584-70.162071-62.663981-151.291784-62.663981-237.760753 0-266.133986 215.748367-481.882353 481.882353-481.882353s481.882353 215.748367 481.882353 481.882353c0 86.468969-22.802673 167.598682-62.663981 237.760753 39.283049 50.867501 62.663981 114.630174 62.663981 183.886306zM572.312395 477.629741c1.908254 44.660856 42.559849 74.306259 76.792772 91.42272 32.690899 16.345449 65.034842 24.518174 66.403388 24.865129 16.133421 4.028536 32.498146-5.782588 36.526682-21.916009s-5.782588-32.478871-21.916009-36.526682c-16.596028-4.182739-36.256828-11.410974-53.585318-20.084856 10.023153-10.755614 16.171972-25.173534 16.171972-41.037101 0-33.269158-26.966136-60.235294-60.235294-60.235294s-60.235294 26.966136-60.235294 60.235294c0 1.098692 0.038551 2.197384 0.096376 3.2768zM271.945487 572.001581c4.028536 16.133421 20.393261 25.944546 36.526682 21.916009 1.368546-0.346955 33.693214-8.51968 66.403388-24.865129 34.232922-17.116461 74.884518-46.761864 76.792772-91.42272 0.057826-1.079416 0.096376-2.178108 0.096376-3.2768 0-33.269158-26.966136-60.235294-60.235294-60.235294s-60.235294 26.966136-60.235294 60.235294c0 15.863567 6.148819 30.281487 16.171972 41.037101-17.328489 8.693158-36.989289 15.902118-53.585318 20.084856-16.133421 4.028536-25.944546 20.393261-21.916009 36.526682zM511.980725 52.705882c-109.657148 0-205.609562 58.616169-258.288941 146.203106l77.486682 46.492009c36.873638-61.314711 104.048038-102.351812 180.802259-102.351812s143.928621 41.037101 180.802259 102.351812l77.486682-46.492009c-52.679379-87.586936-148.631793-146.203106-258.288941-146.203106z"  horiz-adv-x="1024" />

    
    <glyph glyph-name="drawer2" unicode="&#59236;" d="M1016.99584 243.99872l-256 320c-6.08256 7.59808-15.2576 12.00128-24.9856 12.00128l-448 0c-9.728 0-18.92352-4.42368-24.9856-12.00128l-256-320c-4.54656-5.67296-7.00416-12.71808-7.00416-19.98848l0-288.01024c0-35.34848 28.65152-64 64-64l896 0c35.34848 0 64 28.65152 64 64l0 288.01024c0 7.2704-2.47808 14.31552-7.00416 19.98848zM960 192l-224.01024 0-128-128-192 0-128 128-224.01024 0 0 20.76672 239.37024 299.23328 417.23904 0 239.37024-299.23328 0-20.76672z"  horiz-adv-x="1025" />

    
    <glyph glyph-name="dribbble" unicode="&#59237;" d="M512-128c-282.3168 0-512 229.6832-512 512s229.6832 512 512 512c282.3168 0 512-229.6832 512-512s-229.6832-512-512-512zM943.80032 313.91744c-14.97088 4.7104-135.3728 40.63232-272.40448 18.69824 57.20064-157.184 80.4864-285.20448 84.95104-311.808 98.11968 66.33472 167.95648 171.4176 187.45344 293.10976zM682.82368-19.23072c-6.51264 38.37952-31.90784 172.09344-93.30688 331.63264-0.96256-0.32768-1.92512-0.63488-2.88768-0.96256-246.66112-85.95456-335.21664-257.024-343.08096-273.1008 74.15808-57.81504 167.34208-92.32384 268.43136-92.32384 60.57984 0 118.31296 12.3904 170.82368 34.75456zM187.10528 90.9312c9.91232 16.95744 129.92512 215.67488 355.47136 288.60416 5.71392 1.8432 11.44832 3.56352 17.24416 5.20192-10.97728 24.84224-22.9376 49.70496-35.45088 74.21952-218.39872-65.35168-430.32576-62.62784-449.45408-62.23872-0.12288-4.44416-0.22528-8.88832-0.22528-13.37344 0-112.31232 42.57792-214.87616 112.4352-292.41344zM83.90656 472.90368c19.5584-0.26624 199.74144-1.04448 404.29568 53.28896-72.45824 128.8192-150.60992 237.11744-162.14016 252.928-122.34752-57.71264-213.8112-170.496-242.15552-306.19648zM409.51808 808.50944c12.0832-16.1792 91.52512-124.35456 163.18464-256.02048 155.50464 58.28608 221.34784 146.78016 229.21216 157.98272-77.23008 68.52608-178.7904 110.20288-289.8944 110.20288-35.28704 0-69.59104-4.23936-102.48192-12.16512zM850.51392 659.88608c-9.216-12.47232-82.51392-106.41408-244.20352-172.4416 10.17856-20.82816 19.92704-42.02496 29.02016-63.34464 3.21536-7.55712 6.3488-15.09376 9.4208-22.56896 145.5104 18.28864 290.0992-11.01824 304.51712-14.06976-0.96256 103.2192-37.84704 198.00064-98.75456 272.42496z"  horiz-adv-x="1024" />

    
    <glyph glyph-name="dribbble2" unicode="&#59238;" d="M538.74688 380.06784c-197.34528-63.7952-302.36672-237.6704-311.05024-252.5184-61.11232 67.85024-98.36544 157.57312-98.36544 255.85664 0 3.91168 0.08192 7.80288 0.2048 11.69408 16.75264-0.34816 202.17856-2.72384 393.27744 54.45632 10.9568-21.44256 21.42208-43.19232 31.0272-64.94208-5.05856-1.4336-10.09664-2.94912-15.07328-4.54656zM765.66528 669.65504c-6.88128-9.80992-64.49152-87.22432-200.56064-138.21952-62.70976 115.2-132.1984 209.85856-142.78656 224.01024 28.7744 6.94272 58.79808 10.6496 89.68192 10.6496 97.23904 0 186.08128-36.47488 253.66528-96.41984zM491.19232 508.416c-178.9952-47.53408-336.65024-46.85824-353.77152-46.61248 24.82176 118.74304 104.83712 217.43616 211.88608 267.91936 10.09664-13.824 78.47936-108.58496 141.86496-221.30688zM577.31072 320.49152c0.83968 0.28672 1.67936 0.57344 2.51904 0.86016 53.71904-139.61216 75.93984-256.6144 81.63328-290.18112-45.93664-19.5584-96.4608-30.4128-149.48352-30.4128-88.4736 0-170.00448 30.18752-234.88512 80.77312 6.88128 14.06976 84.35712 163.75808 300.19584 238.96064zM852.00896 896l-679.99744 0c-94.59712 0-171.99104-77.39392-171.99104-171.99104l0-679.99744c0-94.59712 77.39392-171.99104 171.99104-171.99104l679.99744 0c94.59712 0 171.99104 77.39392 171.99104 171.99104l0 679.99744c0 94.59712-77.39392 171.99104-171.99104 171.99104zM512-64c-247.02976 0-448 200.97024-448 448s200.97024 448 448 448c247.02976 0 448-200.97024 448-448s-200.97024-448-448-448zM651.4688 339.02592c119.9104 19.18976 225.25952-12.22656 238.36672-16.36352-17.05984-106.47552-78.17216-198.43072-164.02432-256.47104-3.93216 23.28576-24.28928 135.29088-74.3424 272.83456zM594.5344 474.5216c141.47584 57.77408 205.59872 139.96032 213.66784 150.87616 53.28896-65.10592 85.56544-148.04992 86.40512-238.36672-12.61568 2.6624-139.12064 28.32384-266.46528 12.30848-2.68288 6.5536-5.4272 13.12768-8.23296 19.74272-7.94624 18.65728-16.4864 37.19168-25.3952 55.41888z"  horiz-adv-x="1024" />

    
    <glyph glyph-name="dribbble3" unicode="&#59239;" d="M765.66528 669.65504c-6.88128-9.80992-64.49152-87.22432-200.56064-138.21952-62.70976 115.2-132.1984 209.85856-142.78656 224.01024 28.7744 6.94272 58.79808 10.6496 89.68192 10.6496 97.23904 0 186.08128-36.47488 253.66528-96.41984zM538.74688 380.06784c-197.34528-63.7952-302.36672-237.6704-311.05024-252.5184-61.11232 67.85024-98.36544 157.57312-98.36544 255.85664 0 3.91168 0.08192 7.80288 0.2048 11.69408 16.75264-0.34816 202.17856-2.72384 393.27744 54.45632 10.9568-21.44256 21.42208-43.19232 31.0272-64.94208-5.05856-1.4336-10.09664-2.94912-15.07328-4.54656zM512 896c-282.76736 0-512-229.23264-512-512s229.23264-512 512-512 512 229.23264 512 512-229.23264 512-512 512zM512-64c-247.02976 0-448 200.97024-448 448s200.97024 448 448 448c247.02976 0 448-200.97024 448-448s-200.97024-448-448-448zM619.90912 419.10272c-7.94624 18.65728-16.4864 37.19168-25.3952 55.41888 141.47584 57.7536 205.6192 139.96032 213.66784 150.87616 53.28896-65.10592 85.56544-148.04992 86.40512-238.36672-12.61568 2.6624-139.12064 28.32384-266.46528 12.30848-2.68288 6.5536-5.4272 13.12768-8.23296 19.74272zM491.19232 508.416c-178.9952-47.53408-336.65024-46.85824-353.77152-46.61248 24.82176 118.74304 104.83712 217.43616 211.88608 267.91936 10.09664-13.824 78.47936-108.58496 141.86496-221.30688zM577.31072 320.49152c0.83968 0.28672 1.67936 0.57344 2.51904 0.86016 53.71904-139.61216 75.93984-256.6144 81.63328-290.18112-45.93664-19.5584-96.4608-30.4128-149.48352-30.4128-88.4736 0-170.00448 30.18752-234.88512 80.77312 6.88128 14.06976 84.35712 163.75808 300.19584 238.96064zM651.4688 339.02592c119.9104 19.18976 225.25952-12.22656 238.36672-16.36352-17.05984-106.47552-78.17216-198.43072-164.02432-256.47104-3.93216 23.28576-24.28928 135.29088-74.3424 272.83456z"  horiz-adv-x="1024" />

    
    <glyph glyph-name="drive" unicode="&#59240;" d="M192 0l640 0c106.04544 0 192 85.95456 192 192l-1024 0c0-106.04544 85.95456-192 192-192zM832 128l64 0 0-64-64 0 0 64zM960 768l-896 0-64-512 1024 0z"  horiz-adv-x="1024" />

    
    <glyph glyph-name="dropbox" unicode="&#59241;" d="M736.03072 863.98976l-224.01024-192 288.01024-192 224.01024 192zM512.02048 671.98976l-224.01024 192-288.01024-192 224.01024-192zM800.03072 479.98976l224.01024-192-288.01024-160.01024-224.01024 192zM512.02048 320l-288.01024 160.01024-224.01024-192 288.01024-160.01024zM728.1664 50.42176l-216.14592 185.28256-216.1664-185.28256-135.84384 75.4688 0-93.9008 352.01024-159.98976 352.01024 160.01024 0 93.9008z"  horiz-adv-x="1025" />

    
    </font>
</defs>
</svg>
